<?xml version="1.0" encoding="UTF-8"?>
<svg id="Layer_2" data-name="Layer 2" xmlns="http://www.w3.org/2000/svg" viewBox="0 0 209.33 143.42">
  <defs>
    <style>
      .cls-1 {
        fill: #eb8c6f;
        stroke: #e8f3f4;
        stroke-linecap: round;
        stroke-linejoin: round;
        stroke-width: 5px;
      }
    </style>
  </defs>
  <g id="Layer_1-2" data-name="Layer 1">
    <path id="ROU308" class="cls-1" d="m206.6,136.32l-.94.59-6.37.83-2.12,1.3-2,1.53h-1.41l-1.53-.71-2.24-1.77-1.06-.12-1.53.94-.47,1.18-1.06.83h-1.77l-4.6-1.53-4.01-2.59-1.3-.35-2,.24-1.65-.12-1.3-1.06-.12-1.3,2-6.6.12-2-.47-1.77-1.06-1.06-1.53-.24-1.65,1.18-.59,1.65v3.42l-.35,1.06h-.83l-1.41-.94-4.72-6.25-3.42-3.54-7.43-5.9-1.65-.83h-1.41l-.94,1.18-.24,1.3.94,2.71.12,2.95-.59,2.71.24.83.83.59,1.41.12,2.24-.35,1.18.83-.24,2.12-.59,1.18-1.53.83-2.48.35-4.6-.83-2.24-.94h-1.77l-.83,1.18-1.41,2.83-1.3,1.18-4.6,1.53-2.24.12-3.07-.71-2.24-.83-2.36-.71h-2.36l-9.31,1.65-14.38-.94-.59-2.48-.71-1.53-2.24-3.89-2.59-3.54-1.41-2.24-.12-1.89.83-1.77,1.65-1.65,2.12-1.18,2.24-.94,3.66-.94,1.06-.83.47-1.3-.71-1.53-1.65-2-2.83-2.48-1.53-1.77-1.18-1.77-.94-3.42-1.06-1.41-1.53-.83-2.83-.24-2,.47-1.65.94-4.24,5.07-1.3,1.18-1.53.59-2.24-.24-5.9-1.3-1.77.35-1.06,1.06-1.06,3.07-.71,1.18-1.06.59-1.89.12-5.07-1.18-3.18-1.77-7.31-5.66-4.83-2.71-3.54-.94-2.83-.12-2.36.35-2.12-.12-1.65-.94-1.06-2.48-.94-2.83-3.66-9.31-6.37-9.31-8.61-8.49,9.55-2.24,1.3-.94,1.06-1.41-.71-1.3-7.66-7.07-1.3-3.07.47-1.65,2.12-.59,12.97,1.53,2.71-.47,1.06-1.06.59-1.65.12-2.24,1.3-3.42.47-2-.35-1.65-1.77-2.59,4.95-4.83,1.77-3.77.71-2,.83-1.06,1.06-.59,1.3.12,3.66,2.48,2,.47h20.87l1.18.47,2.12,1.65,1.89,2.36,1.3,1.41,1.53,1.18,2.36.71,1.89-.35,2.59-.94,1.3-1.06.59-1.3-.12-1.53-2.24-4.95-.24-1.65.47-1.3.83-1.3,1.41-1.06,1.41-.24.94.35,2,1.65,3.54.71,2.24.94,2.12,1.18,1.65.47h3.42l1.41-.83,1.06-1.3.47-3.18.71-1.3,2.12-2.36,2.12-2.36,1.41-.94,1.53-.12,2,.47,5.07.12,6.84-3.3,1.18,4.24-.12,1.65.83,1.06,1.65.35.94,4.95.71,2.71,1.41,1.18,1.06.12,1.77,1.18,3.3.12,1.89.59,1.77,1.06,1.65,1.53.83,1.77-.94.83-.71,1.41-.83,4.01,2.12,2-.94,5.66,1.77,1.18,1.65,1.41,3.07,7.19,1.53,2.71.94.59,3.42.71,3.3,2.24,3.07.83,1.3,1.41,2.48,4.36-.12,2.36,1.3,2.24,3.18,4.13,1.53,4.95.83,2.71-.12.71-1.41.47,1.41,2,5.42,2.95v1.3l-.71,1.3,2.83,1.77,3.77,4.24,3.54,2.36,1.53,1.41.12,2.59,2.95.59,2.95,1.89,2.71,1.3,2.48-1.18,1.06,2.95,4.01,5.07,1.77,3.18,2.36,6.6.47,3.18-1.06,2.71,2,1.41.12,2.12-.12,2.12,1.41,1.77-.24,3.54h0Z"/>
  </g>
</svg>