<?xml version="1.0" encoding="UTF-8"?>
<svg id="Layer_2" data-name="Layer 2" xmlns="http://www.w3.org/2000/svg" viewBox="0 0 125.03 135.64">
  <defs>
    <style>
      .cls-1 {
        fill: #eb8c6f;
        stroke: #e8f3f4;
        stroke-linecap: round;
        stroke-linejoin: round;
        stroke-width: 5px;
      }
    </style>
  </defs>
  <g id="Layer_1-2" data-name="Layer 1">
    <path id="ROU315" class="cls-1" d="m109.21,8.16l-.83,2.59-1.06.59-.24,1.89.71.47.12,1.06-1.53,6.25-.24,1.77.35,2.59,3.07,8.96.59,3.07,1.18,2.59-.71,2.71-.24,1.41.35,1.41,1.41,2.95-.35.83-1.65,1.18-.59.94.35,5.19,1.89,5.42,2.24,4.24,1.06,1.77,1.06,17.8-.24,2.95.83,2.24-1.77.94-4.13-.12-1.65.59-2,1.53-2.12,2-1.53,2,6.96,3.66,2.83,2.24,3.07,5.66v6.01l.94,1.77,4.95,6.13h.24l-1.89,2.36-1.06,3.54-1.18.71-1.3-.24-3.54-1.77-2.24-.71-2.48.24-5.42,1.89-1.3.24-.83.59-1.77,2.83-7.55-.94-3.07-1.06-2.95-.47-8.14.35-4.36-.83-6.84-3.77-4.24-3.66-2.48-3.07-1.06-1.06-1.53-.35-2.24.47-4.36.24-7.19-3.18-3.3-3.66-1.18-2-2.24-6.25-.47-1.3v-3.77l-.94-3.89-1.06-2.48-1.3-2.12-2.59-2.59-2.12-3.66-1.3-.83-3.42-1.77-1.18-1.18-3.18-4.6-1.65-3.89-.71-2.59L3.68,35.75l-1.18-4.83.12-3.89.35-2,.94-1.77,1.06-1.41,1.77-1.89,3.07-3.89,2.71-2.36,2.24-1.41,3.54-.71,4.36-.24,2-.59,2.12-1.89,1.18-1.65,2.59-2.24,7.19-.47,4.24,5.9,1.53,3.07,1.18,5.19,1.53,4.48,1.06,2,1.3.94,1.53-.71.71-1.89v-2.71l.71-4.83v-1.65l-1.06-3.3-2.48-4.83-.24-1.41.47-1.18,1.65-1.06,21.34,2.71,2,.71.94,1.06.35,2.71.83,1.06h1.3l1.06-.71,2-3.66.94-1.53,1.18-.94,2-.94h1.77l9.31,3.07,4.6,2.48,3.18.83,1.89.12,4.13-1.06.47-.24h0Z"/>
  </g>
</svg>