<?xml version="1.0" encoding="UTF-8"?>
<svg id="Layer_2" data-name="Layer 2" xmlns="http://www.w3.org/2000/svg" viewBox="0 0 1181.71 833.88">
  <defs>
    <style>
      .cls-1 {
        fill: #fff;
      }

      .cls-1, .cls-2 {
        stroke: #e8f3f4;
        stroke-linecap: round;
        stroke-linejoin: round;
        stroke-width: 5px;
      }

      .cls-2 {
        fill: #eb8c6f;
      }
    </style>
  </defs>
  <g id="Layer_1-2" data-name="Layer 1">
    <g>
      <path id="ROU122" class="cls-1" d="m442.06,645.21l.94,4.13.12,1.41.59,1.53.94,1.3,2.24,1.3,1.89.83,4.13,2.59,1.18,1.06,1.18,1.53,2.48,8.61,1.53,2.71,2,3.07,3.54,3.66-4.72,5.54-1.65,3.07-.12,2.59.47,1.3,1.06,1.18,4.95,2.95,1.41,1.41,3.3,4.72.94,1.18,2.71.71,1.53.83,1.77,1.89,1.65,3.42,1.41,2.24,1.53,1.65,2.83,2.24,1.18,1.41,2.12,4.6,1.3,1.89,1.3,1.53,4.48,2.95,3.18,1.18,1.41,1.06,2.36,2.48.71,1.65v1.41l-1.06,2.48-.24,2.24.24,2.59.94,4.24,2.59,4.72v1.06l-.83.35-4.24-.83-1.18.12-1.3,1.3-.12,2.95-1.3,5.9.24,1.06.71,1.06,2.12.83,3.89.24,1.65.35,1.65,1.41.59,1.65.24,1.77-.24,1.53-.47,1.06-2.36,1.41-1.18.83-.59,1.53.24,1.41,1.77,2.95.35,1.41-.24,1.18-1.53,4.72-.71,1.18-1.77,1.3-.35.83-.35,2-.59.94-2.24,1.77-.83,1.3-6.84,14.5-43.51-10.97-7.07-4.24-2.83-.47-10.49,2.36-5.42-.94-13.44-7.43-19.81-1.06-11.32,1.65-4.6,2.48-4.36.94-3.77,1.65-26.41,2.36-3.89-.94-3.07-2.71-1.53-3.3-.12-3.89,3.07-12.97,1.3-3.89,2.48-1.65,2.59-.35,4.95-1.65,2.71-.35,4.36-2.48,2.12-5.31-1.18-5.31-2.71-1.3,10.14-10.73,3.89-1.06,1.3.24.94-.59.47-2.12v-2l-.35-2.12-.83-2.83-.24-2.24.35-2,2.59-5.66.35-1.41.59-4.36.59-3.07.71-2.24,1.06-1.53,6.6-3.77,1.65-.24,2.48.47.71-.24.24-1.18-.35-.94-1.65-1.3-3.89-.47-1.41-.35-.94-.71-.47-1.18v-1.18l.94-3.77.24-1.41.47-.94.94-.94,2.48-.83,1.89-.94,1.65-1.89,1.65-2.48,2.71-2.36v-.71l-2.83-1.06.47-.59,1.65-.83,7.78-.47,1.53-1.06,2-.83,3.07-.71,6.84.35,1.77-2,11.44-8.02,11.79-3.77,5.9-.35,1.06-.71.59-.94v-2.59l-.47-3.18.47-2.59.12-2-.59-4.48.35-2.59.59-.71,1.53-.12,1.65.71,1.18,1.3h0Z"/>
      <path id="ROU123" class="cls-1" d="m442.06,645.21l-1.18-1.3-1.65-.71-1.53.12-.59.71-.35,2.59.59,4.48-.12,2-.47,2.59.47,3.18v2.59l-.59.94-1.06.71-5.9.35-11.79,3.77-11.44,8.02-2-4.24-1.3-1.77-6.96-6.96-8.02-5.54-2.95-1.3-21.58-6.25-2.36-1.18-2.83-2-9.55-9.08-11.08-12.62-.83-2-.35-1.89-.47-3.77-1.18-4.72-.24-3.18.59-2.95.59-1.53v-1.53l-.59-1.53-1.53-1.53-3.18-2-2-1.89-1.41-1.65-.94-1.53-1.18-1.18-1.53-.71-2.36-.35-5.9.71-1.89-.47-2.24-1.18-5.42-6.96-4.83-2.24.71-3.77-.71-1.41-.83-1.06-1.18-.35-4.72-.24-1.53-.59-1.06-.83-.47-1.41.24-1.77,1.06-2.48,3.54-4.72,8.49-7.55,26.41-9.67,1.3-.24,1.65.83.83,1.18,1.18.94,1.41.47,5.42.35,1.06.47,2,1.89,1.3.47,1.89-.12,8.02-3.42,3.07-.24,1.89.24,3.77,1.77h1.53l2-.47,6.72-4.13,2-.71,5.54-1.18,4.24-2.12,2.36-.71,3.18.12,1.89.47,1.77.94,2.24,1.65,1.06.12,1.3-.47,2.12-1.77,7.07-3.89,7.78-2.59,3.77,1.18h6.01l1.41.47,2.36,1.3,1.89.35,2.24.12,7.66-.83,2.12.47,2.12,1.65.94,1.41.59,2-1.65,6.84-.24,3.42.94,4.83,1.3,3.18.59,2.48-.24,2.12-2,5.9-.47,2.59.47,6.01-.12,2.36-3.42,13.8-1.41,3.89-.59,2.36-.24,3.42,1.77,20.16-.47,9.31-1.77,10.14h0Z"/>
      <path id="ROU124" class="cls-1" d="m406.45,675.27l-1.77,2-6.84-.35-3.07.71-2,.83-1.53,1.06-7.78.47-1.65.83-.47.59,2.83,1.06v.71l-2.71,2.36-1.65,2.48-1.65,1.89-1.89.94-2.48.83-.94.94-.47.94-.24,1.41-.94,3.77v1.18l.47,1.18.94.71,1.41.35,3.89.47,1.65,1.3.35.94-.24,1.18-.71.24-2.48-.47-1.65.24-6.6,3.77-1.06,1.53-.71,2.24-.59,3.07-.59,4.36-.35,1.41-2.59,5.66-.35,2,.24,2.24.83,2.83.35,2.12v2l-.47,2.12-.94.59-1.3-.24-3.89,1.06-10.14,10.73-2.59-1.06-5.66-.83-4.48-2-26.88-18.39-.59-2.48.47-8.37-.94-2.36-2.36-1.18-5.19-.71-4.83-2.12-4.13-3.66-3.3-4.48-2.24-5.07-.12-1.3.35-2.83-.12-1.3-.59-1.18-2.59-2.48-.35-1.41v-2.24l.35-2.36.47-1.65.94-.71,1.06-.35,4.48-.24,1.53-.71,1.06-1.77.35-2.95.71-2.95,1.89-1.77,2.48-.71h2.59l2.59,1.06,4.48,3.07,2.71.71,2.48-.47,2.71-1.3,2.24-2.24.71-3.18-6.25-6.96-1.89-1.41-9.79-1.18-4.24-2-4.24-3.54-8.61-9.55-1.89-1.06-2.24-.59-3.07-.12-1.3,1.06-4.36,4.83-2.36,1.41-5.19,1.18-1.89,1.41-.71,2.71-14.15,25.7-1.65,1.65-2.95.83-2.71-.35-2.83-1.18-2.12-2.12-1.3-5.07-1.18-1.18-1.41-.83-1.3-1.3-.71-1.3-.59-3.42,6.72-1.18,1.65.24,3.07.83,2.95-.12,1.3-.71,1.06-1.18.59-2.24-.12-2.12-.59-2.48-.94-2.95-.12-2.24.24-2.24.47-2.12.83-2.59,1.3-2.95,2.83-4.83,1.06-2.83.71-2.36v-1.41l.35-1.18.71-.94,1.89-.35,1.3.24,1.18.59,4.24,4.36,1.77,1.06,1.3.12,4.01-.12,1.06.24,1.77,1.3,1.41,2.71.94.47,1.3.12,1.89-.35,1.3-1.06,1.3-2,1.18-3.89,1.89-8.37,3.07-7.9,5.31-8.73,1.3-4.13.71-2.83.59-4.13.47-2.12.94-2.59,4.01-6.37,5.31-5.66,4.83,2.24,5.42,6.96,2.24,1.18,1.89.47,5.9-.71,2.36.35,1.53.71,1.18,1.18.94,1.53,1.41,1.65,2,1.89,3.18,2,1.53,1.53.59,1.53v1.53l-.59,1.53-.59,2.95.24,3.18,1.18,4.72.47,3.77.35,1.89.83,2,11.08,12.62,9.55,9.08,2.83,2,2.36,1.18,21.58,6.25,2.95,1.3,8.02,5.54,6.96,6.96,1.3,1.77,2,4.24h0Z"/>
      <path id="ROU126" class="cls-1" d="m524.47,622.81l1.41,4.24.83.71,1.18.35,1.06-.47,5.07-4.24.83-1.06,1.65-4.24,1.41-2,1.06-.71,1.18.24.59.94.35,1.41-.35,3.18.12,2,.94,2.36,5.54,11.67,1.41,1.89,2.48,2.48,2,.59h2l1.89-.47,2.24.24.94.71.59.94-.71,1.06-2.24.94-1.06.83-1.06,1.89.35,1.65,3.07,5.07.94,2.71.59,3.89.24,2.12,1.3,4.48,1.18,7.9-.12,1.18-.71,2.24-.12,3.07,1.53,5.78.47,7.66.71,2.71.83,1.41,1.18.83,6.01.47,2.71,1.89-1.65,4.01-.24,4.48,1.06,7.66.35,8.25-.35,3.89-1.41,5.9-.12,4.6.24,2.95.59,2.59.24,3.3-.83,1.53-1.53,1.06-4.24.83-1.65.59-1.41,1.06-3.66,4.01-1.3.71-1.77.47-2.12.12-2.12.71-2.24,1.18-2.59,3.54-.71,2.48.12,3.3,3.77,9.9,4.48,8.96,5.31,8.96.71,2.59-.24,1.3-1.06.94-3.54,1.77-1.65,1.18-1.41,1.41-2.71,3.66-20.04-7.55-4.24-.59-4.36,1.41-6.96,5.31-2.12.59-24.76,1.3-1.18-.35,6.84-14.5.83-1.3,2.24-1.77.59-.94.35-2,.35-.83,1.77-1.3.71-1.18,1.53-4.72.24-1.18-.35-1.41-1.77-2.95-.24-1.41.59-1.53,1.18-.83,2.36-1.41.47-1.06.24-1.53-.24-1.77-.59-1.65-1.65-1.41-1.65-.35-3.89-.24-2.12-.83-.71-1.06-.24-1.06,1.3-5.9.12-2.95,1.3-1.3,1.18-.12,4.24.83.83-.35v-1.06l-2.59-4.72-.94-4.24-.24-2.59.24-2.24,1.06-2.48v-1.41l-.71-1.65-2.36-2.48-1.41-1.06-3.18-1.18-4.48-2.95-1.3-1.53-1.3-1.89-2.12-4.6-1.18-1.41-2.83-2.24-1.53-1.65-1.41-2.24-1.65-3.42-1.77-1.89-1.53-.83-2.71-.71-.94-1.18-3.3-4.72-1.41-1.41-4.95-2.95-1.06-1.18-.47-1.3.12-2.59,1.65-3.07,4.72-5.54,4.72-2.95,2.95-.71,1.41.24,2.48,1.41.94,1.3,1.18,2,.94.83.94.12,1.53-.71,3.89-5.66,1.3-1.41,1.53-.83,1.3-.24h1.65l2.95.83,2.48-.24,3.66-2.12.94-1.3.83-3.66.59-1.53,1.53-1.18h1.18l1.06,1.06-.24,2.95.94,2.36.94,1.18,1.18.59,1.89-1.65-.35-3.18-.94-4.01-1.41-3.3-1.41-2.24.47-2.95-1.65-7.55-.59-3.77v-1.53l2.36-2.48,2-3.07,1.06-2.24.71-1.89.94-3.89.24-2.36,1.06-4.13,3.54-6.25,1.89-2.36,1.3-.71,1.18-.12,1.3.35,1.53,2.71-.24,8.14h0Z"/>
      <path id="ROU127" class="cls-1" d="m658.3,683.06l2.71,2.12.24,1.18v1.41l-2.24,3.77-2.59,6.6-.59,2.24.47,1.41,2.12,4.01,1.65,4.72,1.3,2,1.53,1.3,10.97,1.41,1.77.59,3.54,3.3,2.48,1.77,1.06,1.18.71,1.89.47,2.71.12,4.48-.35,2.59.59,4.95v2.59l-.24,2-1.06.83-3.66,1.06-1.18.83-.47,1.41-.59,3.66-.59,1.77-1.41,3.18-.71,2.12-.24,2.36v2.71l1.06,9.9,3.18,18.04,1.53,4.24,2.95,4.24.71,2.24,2.12,17.69-7.66.24-2.24,1.53-1.89,1.89-2.71,1.65-2.83,1.18-2.36.59-2.24,1.18-2.83.35-5.66-.35-2.59.47-5.19,2.36-2.83.71-5.42-.71-4.6-2.71-4.24-3.3-4.48-2.71-5.19-1.18-16.04-1.3-14.74-5.19-26.29,1.77-5.78-.83-5.54-2,2.71-3.66,1.41-1.41,1.65-1.18,3.54-1.77,1.06-.94.24-1.3-.71-2.59-5.31-8.96-4.48-8.96-3.77-9.9-.12-3.3.71-2.48,2.59-3.54,2.24-1.18,2.12-.71,2.12-.12,1.77-.47,1.3-.71,3.66-4.01,1.41-1.06,1.65-.59,4.24-.83,1.53-1.06.83-1.53-.24-3.3-.59-2.59-.24-2.95.12-4.6,1.41-5.9.35-3.89-.35-8.25-1.06-7.66.24-4.48,1.65-4.01,5.31-1.41,6.72,1.77,2.24-.12,1.89-.47,2.24-1.53,1.53-1.89,1.3-.94,1.18-.24,3.89.59,3.07-.83,1.77-.71,2.71-2.71,2.59-1.53,5.66-1.06h2.83l2.12.24,2,.59,4.01,2,2.71,1.06,1.41-.12,2.12-.71,2.48-2.36,1.3-1.89,1.89-3.3,2.48-3.07.59-.94v-1.06l-.94-1.77-.12-1.06.71-.59,1.77-.35,2.83.59,6.96,3.3,3.07.24h0Z"/>
      <path id="ROU128" class="cls-2" d="m745.08,695.55l-1.89,5.54-5.9-1.89-.94,2.71,3.89,9.55-3.3,2.95-6.01-7.9-6.84-1.53-8.25-8.84v-5.54l8.25-.71v-5.54l-6.6-2.83,6.01-10.49,8.37-3.07,1.06,11.67,9.79,2.36-3.07,8.96,5.42,4.6h0Z"/>
      <path id="ROU129" class="cls-1" d="m970.51,709.47l-3.54,8.73-3.3,4.13-4.13,2.59-18.04,4.48-4.48,3.66-2.48,1.53-5.19.94-10.38-.12-4.83,1.65-6.6,4.01-1.18,1.3-.94,1.65-2.12,1.77-2.59,1.3-2,.71-18.98-3.07-3.42,2.95-1.53,2.24-3.3.24-2.59-1.53-13.09-2.59-9.08-5.66-3.18,2-14.62,1.53-11.79,7.07-4.48,1.3h-5.54l-1.41.35-2.48,1.53-1.3.35-2.48.35-4.13,1.41-24.64,3.66-.24-2.48.35-1.77.94-2.12,3.54-5.19.83-2.36.35-2.83-.35-4.24-1.06-3.77-1.65-3.42-2.83-3.07-11.08-6.6-5.78-6.84,1.41-4.6,3.18-5.07,3.18-4.24,2.12-2.12,2.36-1.65,7.43-3.54,1.41-1.53,1.41-2.83-.12-.94-.71-.71-2.36-.83-1.77-1.06-1.18-1.3.12-2.24.47-1.06,2.24-1.53,9.9-5.19,2-.35,1.77.47,1.77.94,3.89,2.95,1.53.59,1.77.24,2.12-.35,3.07-1.06,2.24-1.65,1.89-2.48.83-.71,1.18-.35,1.06.47,4.01,4.01,2.12,1.3,2.36.71h3.07l2-.35,1.89-.12,1.41.47,3.66,2.12,2.36.47,7.19-1.3,2.48.24,2.83.59,9.2,3.89,2.95.71,3.77-.12,7.19-1.3,22.17.47,2.24-.59,3.54-1.41,3.18-.47,3.77.12,17.33,3.3,3.54,1.77,6.96,1.53,1.53.71,2,1.77,2.59,2.95,5.07,3.54,11.44,4.83,18.75,6.13h0Z"/>
      <path id="ROU130" class="cls-1" d="m722.44,642.5l-3.07,3.66-1.53,1.18-.83,1.77-.47,1.77-.71,1.18-2.71,2-.47,1.06v1.06l.47,1.06,4.24,1.41.47,1.41-.59,1.53-1.18,1.65-5.9,7.07-2.83,2.24-38.32,2.36-3.54.94-2.48,1.3-1.3,1.53-3.42,4.36-3.07-.24-6.96-3.3-2.83-.59-1.77.35-.71.59.12,1.06.94,1.77v1.06l-.59.94-2.48,3.07-1.89,3.3-1.3,1.89-2.48,2.36-2.12.71-1.41.12-2.71-1.06,2.71-4.95.35-3.18-1.18-4.36-.12-2.36.71-1.77,2.24-4.24.12-1.53-.47-1.3-2.12-1.3-2.83-.47-1.3-.47-1.06-.71-3.42-3.42-1.3-1.77-3.18-6.25-.35-2.12.47-1.41,2.83-1.77.47-.83-2.48-2.36-1.77-2.12-.24-2,.35-2,1.89-3.42.59-1.53.24-1.89,1.06-14.38-.35-2.71-2-9.55-.24-3.42.24-2.95.71-1.53,3.54-4.13.59-1.53v-1.65l-.59-2.24-1.41-3.42-3.89-4.48-1.77-2.95-1.3-6.96.12-3.42.59-2.36.59-1.06,1.3-3.18,1.3-1.3.83.12.83.83,1.41,2.36.94.83,1.06.35,1.18-.24,1.06-.83,1.18-1.3.94-1.89,1.18-2.83.94-3.66.24-4.13.59-2.83.71-2.36.94-1.89,1.89-3.18.83-1.89.59-2.95v-2.12l-.47-1.77-.71-1.65-1.89-3.42,7.55-2,2.36-2.95.59-1.89,1.06-2.24.94-1.06,2.48-1.18,2.24,11.08.83,7.9.59,2.12.83,1.53,3.77,2.83,1.3,1.41,1.41,2.36.83,2.12.35,1.77-.35,4.83.12,2.48,1.89,3.3,2.48,2.71,1.41,2.12,6.84,13.32,5.19,5.78,1.06,1.89.47,1.89.83,7.55.94,4.36.94,2.24,1.06,1.89,1.3,1.18,2.71,1.18h1.41l3.42-.94.94.47,1.3,1.41,1.65,2.83.59,2.48.12,2.48-.71,5.07.47,3.18.94,1.65,1.41,1.06,5.9.83,1.89.71,2.12,1.18,8.61,10.61,1.53,1.3,2.48,1.3,1.41.47h0Z"/>
      <path id="ROU131" class="cls-1" d="m753.68,715.25l5.78,6.84,11.08,6.6,2.83,3.07,1.65,3.42,1.06,3.77.35,4.24-.35,2.83-.83,2.36-3.54,5.19-.94,2.12-.35,1.77.24,2.48-13.21,2-9.79,4.36-10.02,2.59-4.36,2.36-4.6,5.07-2.12,3.42-.94,2.59-14.97,11.08-1.18,2-.94,2.48-5.9,7.55-3.77,2.12-4.13,4.24-.24.71-2.83,4.72-5.19,2.24-.83.12-2.12-17.69-.71-2.24-2.95-4.24-1.53-4.24-3.18-18.04-1.06-9.9v-2.71l.24-2.36.71-2.12,1.41-3.18.59-1.77.59-3.66.47-1.41,1.18-.83,3.66-1.06,1.06-.83.24-2v-2.59l-.59-4.95.35-2.59-.12-4.48-.47-2.71-.71-1.89-1.06-1.18-2.48-1.77-3.54-3.3-1.77-.59-10.97-1.41-1.53-1.3-1.3-2-1.65-4.72-2.12-4.01-.47-1.41.59-2.24,2.59-6.6,2.24-3.77v-1.41l-.24-1.18-2.71-2.12,3.42-4.36,1.3-1.53,2.48-1.3,3.54-.94,38.32-2.36,3.07,6.72-.47,5.07-.59,1.89-2,3.89-1.18,3.42-1.18,7.9.83,3.3,1.3,2.12,3.3,1.65,2.36.83,1.77,1.18.94,2.12.94.94,1.06.35h2.83l1.41.71,9.43,8.49,2.12,1.3,1.89.94,2,.47,1.89.35,1.65-.12,1.65-.35,1.53-.94,3.07-2.48,6.72-7.07h0Z"/>
      <path id="ROU132" class="cls-1" d="m868.29,628.23l10.26,4.24,2,.24,2.48-.12,2.83-1.41,2.12-.71,1.65.24,1.53.83,3.54,1.41,33.96.94,4.83-1.06,2.83-.94,2.12-1.18,2.83-.94,5.78-.59,2.59.47,2.24,1.41.94,1.3,3.77,3.54-2,1.18-1.3,1.89-.94,2.48.94,3.18,1.77,3.07,2.24,2.48,2.36.94,3.07.47,2.24,1.18,6.6,7.43.47,1.06-.12,1.53-.71,4.13-.83,1.89v6.13l-.83,1.65-1.3.59.35,1.41,1.65,1.65,2.71,1.53,3.07,1.06,2.36.47.94,1.41,1.06,3.18.83,3.54.24,2.71-1.41,2.12-5.19,4.24-1.18,1.3-3.18,7.66-18.75-6.13-11.44-4.83-5.07-3.54-2.59-2.95-2-1.77-1.53-.71-6.96-1.53-3.54-1.77-17.33-3.3-3.77-.12-3.18.47-3.54,1.41-2.24.59-22.17-.47-7.19,1.3-3.77.12-2.95-.71-9.2-3.89-2.83-.59-2.48-.24-7.19,1.3-2.36-.47-3.66-2.12-1.41-.47-1.89.12-2,.35h-3.07l-2.36-.71-2.12-1.3-4.01-4.01-1.06-.47-1.18.35-.83.71-1.89,2.48-2.24,1.65-3.07,1.06-2.12.35-1.77-.24-1.53-.59-3.89-2.95-1.77-.94-1.77-.47-2,.35-9.9,5.19-2.95-2.24-3.89-2-1.06-1.53-.35-1.41.59-2.95,1.41-2.71,1.06-1.18,4.83-3.42.83-.94.59-1.41-.35-1.18-1.06-1.3-7.66-4.24-1.3-1.65-.24-2.83-.35-1.41-.94-1.77-.35-1.41v-2.95l-.71-.83-1.3-.47-4.95-.71-2.36-.71,4.48-4.24,4.24-2,1.77-.12,1.41.35,2.95,1.65,2.71.24,1.41-.59,2.12-2.48,1.77-1.41,1.65-.35,6.72.59,1.77-.47,1.65-.94,2.24-1.89,1.53-2.83,3.18-4.01,2.83,1.41,4.13,3.66,2.24.59,2.95.24,8.25-.59,7.43,1.3,2.83.94h1.77l4.36-.83,2.48.12,2.95,1.06,3.66,2.36,1.65.71h1.77l1.77-1.06,1.3-1.41,1.53-.94,1.89-.24,2.95.83,2,1.06,1.65,1.06,1.18,1.18.71,1.18.12,1.3-.24,2.24.12,1.77.47.47,1.77-.12,3.54-1.41,2.83-.71,1.18-.59.59-.83-.59-.94-2.24-1.77-.83-.83.59-1.77,2.71-1.41h0Z"/>
      <path id="ROU133" class="cls-1" d="m1065.43,652.75l-.47,2.48.35,2.83,1.06.71,6.6-1.18,2.95-1.77,2.71-2.71,2.59-3.3-1.77-3.66,8.61,2.83,2,1.41.59,3.07-1.06,3.54-2.12,2.71-2.95.94,2.24-2.95,2-3.3.35-2.95-2.83-1.65v1.3l.83,1.18-.24.59-2.36.59-1.77-1.18-1.3.35-1.18,2-2.36,1.89-3.89,4.13-8.25,4.36-1.77,1.53,2.24-4.13.35-1.77-1.89-.24-1.53.35-1.18,1.18-.47,2.24h1.65l-.83,1.77.47,1.41,1.3.94,1.65.71-4.95,1.53-1.89,1.65v2.71l1.77-2.36,1.77,1.06,1.53,1.3-1.06,2.36-1.41,4.48-1.06,4.72.59,3.42,1.06.24.94-1.3.71-1.89.83-4.13,1.18-1.41,2.48-1.65,3.77-5.07,2.12-2.36,2.24-1.06,2.36-.59,1.77-1.89,1.06-2.36h.47l-1.18,2.95-8.14,15.8-5.9,4.48-11.2,15.21-1.3,3.89-.35,2.12-1.65-1.18-1.89.83-1.65,1.41-1.3,2-.71,2.12-.35,2.48-.24,6.6.59,2.12,2,3.77,1.65,5.42.47,2.59-.47,1.53-2.36.59-1.18,1.3-.71,1.77.83,3.18,2.12,14.03,2.12,8.96-.24,2.48-1.18,1.65-.59,3.18-1.77,4.95-.47,2.36-2.95,6.01-.47,1.65-2,9.43-.71,1.65-.47,1.65.59,1.65-.47,1.53-.47,3.54.24,1.89-.59,1.65-17.92,1.06-26.53-4.6-25.7-11.79-4.24-3.3-5.54-19.93-2.95-4.95-6.96.83-8.61,4.83-8.14,2-5.66-7.78-2.48-5.19-2.83-1.06-7.43,2.36-23.7.24-1.3-1.06-2.48-4.24-1.41-1.3-7.07-3.42-2.59-2.95.59-3.89-2-1.65,1.53-2.24,3.42-2.95,18.98,3.07,2-.71,2.59-1.3,2.12-1.77.94-1.65,1.18-1.3,6.6-4.01,4.83-1.65,10.38.12,5.19-.94,2.48-1.53,4.48-3.66,18.04-4.48,4.13-2.59,3.3-4.13,3.54-8.73,3.18-7.66,1.18-1.3,5.19-4.24,1.41-2.12-.24-2.71-.83-3.54-1.06-3.18-.94-1.41-2.36-.47-3.07-1.06-2.71-1.53-1.65-1.65-.35-1.41,1.3-.59.83-1.65v-6.13l.83-1.89.71-4.13.12-1.53-.47-1.06-6.6-7.43-2.24-1.18-3.07-.47-2.36-.94-2.24-2.48-1.77-3.07-.94-3.18.94-2.48,1.3-1.89,2-1.18,2-.35,2.36-.12,2.48.59,3.66,2.48,2.36.47,2.59-.94,2.48-2.36,11.32-.94,6.25,2.48,10.73,10.14,5.42-1.3,2.59-7.55h7.19l6.25,7.55,8.96,3.77h9.9l8.02-2.48,7.19,3.77,7.07,1.65h0Z"/>
      <path id="ROU276" class="cls-1" d="m309.06,352.56l6.01,6.25-8.14,6.13-2.12,4.72-1.18,2.95-2.83,4.72-2.59,2.36-2.36,1.3-2.95.47-2.36-.24-6.96-1.65-2.24.24-1.65,1.06-2.95,2.59-1.06,1.77-.59,2,.35,5.9-.24,2.59-.59,2.71-1.77,3.66-.71,2.24-.35,1.77,1.3,4.24.35,1.77-.12,2.24-.83,2.95-1.41,3.07-5.78,7.55-2.24,1.06-1.06,1.3-.83,2.59-1.3,1.06-2.12.12-4.6,1.18-1.06.47-2.48,2.36h-1.06l-3.07-1.77-1.77-.35-2.48.35h-1.89l-1.89-.47-3.18-3.07-2.12-.94-.94-.71-.83-2.12-.71-.94-1.3-.71-4.83-.35-2.24-.71-1.53-1.41-1.06-1.3-1.3-.94-1.89-.59h-2.95l-1.53.35-.94.47-.83,2-.83,4.01-1.18,1.53-3.77.24-1.18-.47-2-1.65h-.71l-.59,1.06-.24,2.71.12,2.48-.12.94-1.3-.12-1.06-1.3-1.53-2.48-2.48-2-4.01-1.89h-1.77l-1.06.59-.94,1.18-1.65,2.95-1.3,2.83-.71.94-.94.12-2.36-3.18-2.12-1.77-.12-.71.83-2.83-.47-1.3-1.06-1.41-2.59-2.12-2.71-2.95-1.3-.71-1.41-.24-3.42.47-1.18-.47-.94-1.3-.24-1.41-.12-2.59-1.06-1.06-1.89-.59-4.13-.47-2.12.24-1.3.71-.24.94-.24,2.48-.47,1.18-.71.83-3.3,2.71-2.83,2.83-1.65.12-1.77-2.12-1.3-.71h-2.12l-1.77.35-1.41.59-2.83,2.48h-1.77l-2.12-1.18-3.3-3.3-.94-2.12-.47-2.36-.94-.35-1.89.24-1.18.71-1.18,1.06-.71,2-.12,2-.71,1.89-.83.47-1.3.12-1.89-.35-1.65-.83-1.53-2.24-.35-1.18.35-2.12-.59-.83-1.3-.83-2.59-.71-1.53.12-2.36.59h-1.06l-7.78-1.41-1.77-.59-1.53-1.06-1.65-2.48-1.3-3.54-4.36-4.48-17.69-12.38-1.77-.71.12-2.24.59-1.3.94-.35,2.36.59,1.06-.94v-1.53l-1.18-4.01-.12-1.65.59-.94,4.83-4.13,2.59-1.3,2.59-.83,2.48.12,1.18.59,2.24,2,.94.47,1.3-.12,2.59-1.3,2.24.47,4.72,2,2.48-.12,1.06-.47h1.06l.94.47.94,1.06,2.36,2.12,2.24-.83,6.01-7.31.83-.35h3.54l1.3-.94,1.41-2.71,1.06-3.54.47-8.02,1.3-3.89,2.12-2.48,2.36-.83,5.31-.24,2.83-2.24-.71-4.01-3.66-6.96.24-3.66,1.77-2.83,2.12-2.83,1.65-3.3.47-6.96.71-3.42,1.89-2.24,2.59-.71,4.6.35,2.71-1.41,2.59-3.42.83-2.36,2.71.94,5.78,1.41,41.62-2.36,3.18.59,1.77,2.12,1.77.94,1.53.12h2.36l1.65.47,2,1.06,1.65,1.65,3.07,1.18,10.97.47,3.3.71,2.36,1.06,1.3,1.3,2.83,2,.94,1.18.94,2.12,2.71,7.31,1.41,2.95,1.89,2.36,2.48,1.65,3.18,1.06,2,.83,5.9,5.19,9.31,3.54,1.06,1.18.94,3.42,1.41,2,1.89,1.06,1.89.47,11.32.24,9.43,2,5.9.47,5.19-.35h0Z"/>
      <path id="ROU277" class="cls-1" d="m293.38,179.24l-1.3,5.07-.71,1.53-1.41,2.24-.59,1.53-.35,3.07-.35,1.41-.71,1.41-3.18,4.72-2.12,2.24.12,2.48,1.53,3.89,5.31,8.37,3.66,7.19.47,1.53.94,1.41,1.3,1.53,7.78,4.48,4.83,4.83,2.12,3.66-.94,2.48-2.71,5.31-.47,1.77.24,1.18,1.06.83,6.25,2.48,1.65,1.3.59,1.89-.47,3.42-1.3,4.13-1.53,2.71-1.06.83-4.6,2.12-1.41.94-1.06,1.3-.71,1.3-.24,1.53.35,1.65,1.53,2.12,4.95,4.48,1.65,2.59,1.65,3.77,2.12,8.49,1.18,2.24,2.48,2,1.18,1.06.59,1.53-.59,4.48v6.84l-1.89-1.18-2.83-.71-3.18.35-1.41.83-1.53,1.89-1.65,3.3-1.3,4.6-.71,4.24.24,11.08,2.24,9.55-5.19.35-5.9-.47-9.43-2-11.32-.24-1.89-.47-1.89-1.06-1.41-2-.94-3.42-1.06-1.18-9.31-3.54-5.9-5.19-2-.83-3.18-1.06-2.48-1.65-1.89-2.36-1.41-2.95-2.71-7.31-.94-2.12-.94-1.18-2.83-2-1.3-1.3-2.36-1.06-3.3-.71-10.97-.47-3.07-1.18-1.65-1.65-2-1.06-1.65-.47h-2.36l-1.53-.12-1.77-.94-1.77-2.12-3.18-.59-41.62,2.36-5.78-1.41-2.71-.94,1.53-2.83,3.42-.59,2.48-1.41,2.36-3.42.35-3.54-3.3-2.36-.94-1.3.35-2.12.94-1.77,2.71-7.43,1.53-2.95,2.59-2.36,4.6-1.3,1.3-1.06,1.06-2.36-.12-2-.35-1.89-.12-2.24.12-2.12.71-.71,5.78-4.72.94-1.3,2.48-9.08.47-.12-1.3-2.36-.83-.71-2.24-.71-.47-1.65,4.83-5.78,2.83-2.71,6.13-4.01,2.48-2.48.83-1.65.59-3.3.59-1.65,1.18-1.65,2.71-2.71,1.06-1.41.83-2.24-.35-3.42v-2.12l.59-2,1.41-2.71.59-1.65,1.53-6.6.71-2.12,4.83-7.07,2.24-2.59,2.24-1.3,5.54-1.65,2.48-5.07-.12-6.13-1.18-6.37-.24-5.78,2.36-4.48,3.66-4.13,7.66-5.78,6.13-1.53,1.65-1.3.71-1.53,3.18,4.83,1.53,3.66,1.06,1.77,1.41,1.41,5.07,3.89,1.89,2.59,2,3.66,3.54,5.54,1.06,2.12,1.41,3.89.71,1.41,1.18.83,2.12.47,2.24-.59h2.24l1.89.35,1.18-.24,2.95-1.65,1.3-.35,1.3.35,1.77,1.18,2,1.77,3.66,2.12,1.53,1.3,1.18,2.12.83,4.6,1.18,3.3h0Z"/>
      <path id="ROU278" class="cls-2" d="m304.46,554.07l-8.49,7.55-3.54,4.72-1.06,2.48-.24,1.77.47,1.41,1.06.83,1.53.59,4.72.24,1.18.35.83,1.06.71,1.41-.71,3.77-5.31,5.66-4.01,6.37-.94,2.59-.47,2.12-.59,4.13-.71,2.83-1.3,4.13-5.31,8.73-3.07,7.9-1.89,8.37-1.18,3.89-1.3,2-1.3,1.06-1.89.35-1.3-.12-.94-.47-1.41-2.71-1.77-1.3-1.06-.24-4.01.12-1.3-.12-1.77-1.06-4.24-4.36-1.18-.59-1.3-.24-1.89.35-.71.94-.35,1.18v1.41l-.71,2.36-1.06,2.83-2.83,4.83-1.3,2.95-.83,2.59-.47,2.12-.24,2.24.12,2.24.94,2.95.59,2.48.12,2.12-.59,2.24-1.06,1.18-1.3.71-2.95.12-3.07-.83-1.65-.24-6.72,1.18-.35-1.18-3.42-8.49-1.3-1.18-3.89-.71-11.32-5.9-2-.35-2.12.59-4.6,1.89-5.54,1.18h-6.48l-6.01-1.77-4.6-4.6-1.18-3.18-.71-3.18-1.06-2.83-2.24-2-2.48-.71-7.55.59-10.61-1.18-2-.94-2.12-4.6-2.24-1.77-2.24-.94.47-2.36,1.06-1.89,1.65-1.53,3.3-1.18,7.31.35,3.42-.47,5.07-1.53,1.77-1.41.35-3.42-1.06-2.83-1.77-1.65-4.36-1.65-3.07-1.53-6.01-1.06-2.83-2,.24-2.12-.47-.83-2.12-.12-1.65-.47-.24-1.53.59-1.77.94-1.41,1.18-.59,3.18-.24,1.3-.47,1.53-1.3.94-4.6,1.77-2.71.12-2.24-.24-1.3.94-1.41,1.06-1.18,1.3-.59,1.53-.12,1.65-1.41.35-2.12-.47-2.36-1.18-1.41,2.48-1.3,2.24-3.07,1.3-3.07v-1.77l-.71-4.83v-1.89l.35-1.41,2.48-3.07.59-2.12-.47-2.71v-2.36l-1.06-2.48-.94-1.18-2.48-2-4.24-4.48-.83-1.3-.47-3.07.35-1.41,1.3-2.48.47-1.65v-1.53l-.24-3.3,1.18-1.65,2.24-1.89,5.31-2.95,1.65-1.89.94-1.77.24-3.77.59-1.89,1.18-1.89,2.12-1.41,3.54-1.3h3.89l2,.59,2.36,1.41,2.83.83,2.71,1.53,1.53,2,.94.83h2.24l3.07-.83,5.66-2.59,4.48-2.83,1.18-.24,1.89.59,1.18.94.94,1.41,1.18,2.95,1.53,2.59,1.06.83,1.3.71,1.65.24,2.48-.35,2.48-.94,3.07-2.24.83-1.06-.12-.71-1.65-.12-1.18-.59-.24-.83-.59-3.3.24-.94.71-.59h4.36l2.95-.47,2.59-.94,3.07-2,3.18-2.83,1.3-.59,1.65.35.94.71,1.53,1.77,1.89.71,1.77-.24,3.07.35.83-.59,3.42-7.19,4.6-3.3,13.68-2.59,1.06,4.13,3.77,5.07,1.65,1.18,1.77.59,3.3.71.59.83-.24,2.59.24,1.41.71.47,2.12-.24,1.3.35.83.83.83,1.41,1.53,1.3,2.36,1.53,4.13,3.18,1.89,2.48,1.18,2.48,1.53,5.19.35,2.12.12,3.89.47,2.95-.24,1.65-.59,1.77-1.53,2.36-.47,1.06.24,1.65.94,1.65,1.65,2.36.71,1.89.35,1.65-.24,2.71-.71,1.53-2.71,4.01-.94,2.83v3.42h0Z"/>
      <path id="ROU280" class="cls-1" d="m59.92,388.64l1.77.71,17.69,12.38,4.36,4.48,1.3,3.54,1.65,2.48,1.53,1.06,1.77.59,7.78,1.41h1.06l2.36-.59,1.53-.12,2.59.71,1.3.83.59.83-.35,2.12.35,1.18,1.53,2.24,1.65.83,1.89.35,1.3-.12.83-.47.71-1.89.12-2,.71-2,1.18-1.06,1.18-.71,1.89-.24.94.35.47,2.36.94,2.12,3.3,3.3,2.12,1.18h1.77l2.83-2.48,1.41-.59,1.77-.35h2.12l1.3.71,1.77,2.12,1.65-.12,2.83-2.83,3.3-2.71.71-.83.47-1.18.24-2.48.24-.94,1.3-.71,2.12-.24,4.13.47,1.89.59,1.06,1.06.12,2.59.24,1.41.94,1.3,1.18.47,3.42-.47,1.41.24,1.3.71,2.71,2.95,2.59,2.12,1.06,1.41.47,1.3-.83,2.83.12.71,2.12,1.77,2.36,3.18.94-.12.71-.94,1.3-2.83,1.65-2.95.94-1.18,1.06-.59h1.77l4.01,1.89,2.48,2,1.53,2.48,1.06,1.3,1.3.12.12-.94-.12-2.48.24-2.71.59-1.06h.71l2,1.65,1.18.47,3.77-.24,1.18-1.53.83-4.01.83-2,.94-.47,1.53-.35h2.95l1.89.59,1.3.94,1.06,1.3,1.53,1.41,2.24.71,4.83.35,1.3.71.71.94.83,2.12.94.71,2.12.94,3.18,3.07,1.89.47h1.89l2.48-.35,1.77.35,3.07,1.77h1.06l2.48-2.36,1.06-.47,4.6-1.18,2.12-.12,1.3-1.06.83-2.59,1.06-1.3,2.24-1.06,4.24,4.48,1.18,2.95.35,3.3,1.41,4.83,1.18,1.77,3.42,2.71.94,1.18,1.3,2.24,2.24,5.78,1.06,1.53,1.06.59,1.53-.83,1.89-.24,1.3.83.35,1.18-.35,1.3-.94,1.41-5.07,4.6-1.41,1.53-.94,1.89-.59,1.65-.94,4.6-.94,1.41-1.06.47-13.68,2.59-4.6,3.3-3.42,7.19-.83.59-3.07-.35-1.77.24-1.89-.71-1.53-1.77-.94-.71-1.65-.35-1.3.59-3.18,2.83-3.07,2-2.59.94-2.95.47h-4.36l-.71.59-.24.94.59,3.3.24.83,1.18.59,1.65.12.12.71-.83,1.06-3.07,2.24-2.48.94-2.48.35-1.65-.24-1.3-.71-1.06-.83-1.53-2.59-1.18-2.95-.94-1.41-1.18-.94-1.89-.59-1.18.24-4.48,2.83-5.66,2.59-3.07.83h-2.24l-.94-.83-1.53-2-2.71-1.53-2.83-.83-2.36-1.41-2-.59h-3.89l-3.54,1.3-2.12,1.41-1.18,1.89-.59,1.89-.24,3.77-.94,1.77-1.65,1.89-5.31,2.95-2.24,1.89-1.18,1.65.24,3.3v1.53l-.47,1.65-1.3,2.48-.35,1.41.47,3.07.83,1.3,4.24,4.48,2.48,2,.94,1.18,1.06,2.48v2.36l.47,2.71-.59,2.12-2.48,3.07-.35,1.41v1.89l.71,4.83v1.77l-1.3,3.07-2.24,3.07-2.48,1.3-3.07-3.77-3.18-2.59-3.54-1.89-13.21-4.13-5.31-.24-2.12-.94-4.13-2.83-2.12-2.48-4.24-6.25-2-1.53-1.3.35-2,2.24-1.18.47-1.41-.35-2.24-2.12-1.18-1.06-10.26-4.72-2-1.53-4.72-6.37-8.02-7.31-4.13-6.01-1.77-1.77-2.12-1.06-2.12-.71-1.89-1.18-.71-2.48,2.71-2.24,1.77-1.89.35-2.48-1.53-4.13-3.66-6.37-.47-2.83.94-4.48,1.41-3.3.47-1.53.35-2.48-.12-9.31.83-3.54v-1.53l-1.06-1.77-1.53-.83-1.3.59-1.18,1.53-.71,2-1.53,1.3-1.65.59-1.65-.35-1.53-1.41-1.18-2.48-2.83-3.66-1.3-2-.35-1.77-.35-3.66-.35-1.41-.94-1.18-2.12-1.41-.83-.83-4.13-7.43-2-1.89-2.24-.94-4.83-.59-2.24-1.06-6.48-6.13-2.36-1.53-4.95-2.24-2.12-1.53-1.89-2.95-2.59-8.14-1.53-2.71-7.78-9.79,5.07-6.37,19.93-.59,3.07-4.95,5.07,1.18,4.95,2.12,3.66,3.3,1.18.83,1.53.59h.94l6.96-1.41,2.48-1.3,1.89-2.12s.71-2.12.71-2.12Z"/>
      <path id="ROU287" class="cls-1" d="m896.94,132.9l-6.84,3.3-5.07-.12-2-.47-1.53.12-1.41.94-2.12,2.36-2.12,2.36-.71,1.3-.47,3.18-1.06,1.3-1.41.83h-3.42l-1.65-.47-2.12-1.18-2.24-.94-3.54-.71-2-1.65-.94-.35-1.41.24-1.41,1.06-.83,1.3-.47,1.3.24,1.65,2.24,4.95.12,1.53-.59,1.3-1.3,1.06-2.59.94-1.89.35-2.36-.71-1.53-1.18-1.3-1.41-1.89-2.36-2.12-1.65-1.18-.47h-20.87l-2-.47-3.66-2.48-1.3-.12-1.06.59-.83,1.06-.71,2-1.77,3.77-4.95,4.83-5.19-.71-3.07-2.48-3.07-4.36-.71-1.89-.24-2.12.35-4.83-.12-2.24-2-9.67-1.06-4.01-1.3-2.24-4.01-4.13-1.53-2.59-8.25-10.26-2.36-4.13-14.15-18.16-2.95-2.95-6.37-3.54-5.07-4.36-3.3-2.12-1.89-1.77-.83-2.12-2.12-11.32h2.83l5.9-2.71,1.3-1.89,2.71-6.37,1.53-2,3.18-2.83,1.53-1.65,1.89-4.01,2.12-5.78,1.3-5.9-.24-4.24.94-6.13,1.06.35,2.24.24,2.12-.71,4.13-2,2.12-.59,5.9-.24,17.8-4.13,9.67-4.6,2.83-.12,2.95,2.48,1.3.35,1.3-2.12,1.41,2.95,2.48.47,5.07-1.06,2.12,1.06,2.83,3.66,1.41-.83,5.19,5.31.83,1.41.47,3.18,1.18-.59,1.41-2.12,1.18-1.06,1.53,1.41.59,2.12.94,2,4.36,1.65v1.53l-1.41,1.41-2.48.12v1.18l3.42,2.12,2.24.71,1.65-1.3,1.06.59,1.77,1.89-.12,1.06-1.3,1.65-.35,1.06.94,4.6,2.24,3.54,2.95,2.71,3.18,1.89v1.41l-2.48,1.18.83,2.59,3.18-1.41,1.65,2.36,1.18,2.59,1.65-1.06,1.41,1.77.12,1.65-.83,1.65-1.53,1.3,2.71,2.12.71.47v1.18l-2.12,2.95,1.3,1.77,2.83,1.53,2.24,2.71-.12.83.24,5.78-.12,1.06,1.3,1.06,2.83,1.06.94,1.65-4.24,2.59,1.53,1.3,1.65,2.59,2.48,5.19,2.83,2.36.47,1.77-.12,2,.59,1.3v1.18l-2.83.59,1.18,4.13,2.83,4.83,8.14,10.73,3.42,3.66,3.89,1.41.35,1.53h0Z"/>
      <path id="ROU294" class="cls-2" d="m321.08,318.61l3.77,3.3,17.45.47,2.83.83,1.77,1.18,1.77,3.54,1.18,1.18,2.59,2.12.59.94.47,3.3.83,1.3.83.12.94-.47,1.41-2,.94-.94,5.07-3.18,1.18-.35,2.36-.12,5.66,1.89,2.12.24,1.53-.24,1.18-.71,1.3-1.18,4.48-3.42,12.5-2.48,2.12.59,1.77.94,6.96,5.07,6.13,2.59,2.71.47,2.24.12,4.01-.35,1.41.47.83,1.06v1.41l-2,3.3-.59,1.41.12,1.53.94,1.77,2.59,1.77,2,.71,1.77.12.83-.59.24-1.06-.47-2.36v-1.18l.71-.83,1.41-.35,5.9-.12,1.41-.24,2.36-1.18,1.3-.35,5.54.24,1.89-.24,4.6-1.18,2.48.35,7.78,2.48h1.65l2-.94.94-1.41,3.89.24,1.89,1.3,1.41,1.65.71,2.12-.47,1.65-.94,1.41-1.53,1.41-1.06,1.3-.59,2.12.59,1.41,3.89,4.24,1.18.83,6.84,2.95,2.59,2.12,1.3,2.71.94,5.66,1.89,2.59,2,1.3.59,11.91-.12,1.89-.47,1.41-1.41,1.41-2.48,1.53-1.89,2.12-2.71,2.48-10.38,11.2-1.41,2.24-.83,2.59-.59,3.3-.47.94-1.06.47-1.06-.24-1.06-.83-2.24-2.24-2.24-1.41h-1.41l-8.61,1.89-1.53,1.06-.83,1.65-.12,2.95.59,1.77.83,1.65.47,1.65-.35,2.12-1.89,2.36-1.65,1.41-1.89,1.18-1.53.24-2.95-.12-2,.59-1.18-.24-3.42-2-2.36-.24-.94.47-.59.94.59,5.9.83,1.18,1.18.59,3.18.83,1.41.83.83.94-.24,1.53-4.24,6.6-1.65,3.18-1.65,1.65-1.18.12-2.83-.35-1.77,1.06-1.77,2.36-.83,1.89-2.83,9.08-.35,3.18.83,4.6.94,2.59.83,2.95.24,3.3-1.06,5.31-.94,3.07-.35,2.83,1.3,3.89,3.07,5.31.47,2.36.12,1.65-3.42,5.07-5.19.83.24-5.9-.71-3.07-.83-1.06-6.13-6.01-2.71-3.07-2.12-1.53-4.83-2.36-2.95-2.36-1.53-2.24-1.3-3.07-.47-1.77-.12-1.53,1.18-3.89-.47-1.65-2.59-3.18-.71-1.3-.24-1.53.35-3.3-.47-2.71-1.06-3.77-2.71-7.43-3.18-13.8-1.06-2-3.3-4.01-2-3.3-4.83-12.62-1.41-1.18-2.48-.35-2.95-1.41-12.03-15.92-1.18-2.71.71-1.3.83-.24,1.77.59.59-.71-.12-1.77-2-5.31-1.53-2.83-1.65-2.24-1.3-.94-1.53-.71-5.66-.83-1.41-.59-.83-1.06-2.12-7.9-2-5.19-1.3-2.59-1.18-1.53-1.18-.35-11.44,1.18-1.06-.35-6.13-3.89-6.01-6.25-2.24-9.55-.24-11.08.71-4.24,1.3-4.6,1.65-3.3,1.53-1.89,1.41-.83,3.18-.35,2.83.71,1.89,1.18h0Z"/>
      <path id="ROU295" class="cls-1" d="m588.97,131.14l1.41,1.65,9.79,8.02,3.3,3.89,1.41,2.83.71,1.89.12,2.12-.83,2.59-1.41,1.53-3.18,1.77-.94.83-.24.94,1.65,2.71.12,1.18-.35,1.65-1.3.83-1.89-.24-1.18.12-.83.71-.59,1.06.24,1.3,1.06,2,2.48,3.18.94,1.53,1.53,3.3.47,1.77.12,2.12-.94,3.18-1.65,2.83-.94,2.48-.12,1.89,1.41,1.89,1.41.35,2.36-.24.59.35.24,1.06-.47,2.83-.47,1.89-.71,5.54.71,12.73-9.67,3.89-8.14,1.53-3.3,1.18-4.01,2.71-6.37,5.54-.94,1.3-1.65,4.48-.71,1.41-3.07,4.72-1.06,2.24-.71,2.48-.94,5.19-.83,1.41-1.53.71-2.24-.24-2-.94-3.66-2.36-1.53-.59-1.41-.35-1.53.24-2.24,1.06-3.07,2.48-2.59,3.42-1.18,2.12-1.18,3.42-.71,1.3-2.36,2.95-.83,1.53-.94,5.78-.71,1.41-1.65,1.18-2.48.83-4.36.59-5.66,2.36-2,.35-2.71-.12-8.25-2.12-10.26-5.07,2.71-5.54.71-2.24.83-7.55.71-2.59.24-2.95-.59-2.48-2.36-2.48-4.36-2.48-1.53-1.18-.83-1.53-.24-2.12.47-2.71-.24-1.18-2.12-1.53-1.06-1.18.12-2.71.35-2.36.59-2.24.12-2.36-.47-2.24-1.77-2.59-1.77-1.3-2.95-1.41-1.3-.83-2.59-2.48-1.89-1.18-7.07-2-1.53-.83-1.41-1.53-.83-1.89-.59-2.24-1.3-10.14-.47-1.89v-2.24l.71-1.77,4.01-3.42,1.65-1.89,1.3-2.12,1.18-5.19,4.83-4.72,7.55-11.2.83-1.77.47-1.77.47-3.89.59-.94,1.77-.83,10.49-2.24,2.59-1.65,1.18-1.53,2.48-5.66.94-1.65,1.77-1.41,8.61-3.89,2.24-.59,23.35,5.54,23.35-.83,2.59-.83,2-1.41,5.07-4.83,4.24-1.53,10.61.12h0Z"/>
      <path id="ROU296" class="cls-1" d="m470.94,178.65l-1.18,5.19-1.3,2.12-1.65,1.89-4.01,3.42-.71,1.77v2.24l.47,1.89,1.3,10.14.59,2.24.83,1.89,1.41,1.53,1.53.83,7.07,2,1.89,1.18,2.59,2.48,1.3.83,2.95,1.41,1.77,1.3,1.77,2.59.47,2.24-.12,2.36-.59,2.24-.35,2.36-.12,2.71,1.06,1.18,2.12,1.53.24,1.18-.47,2.71.24,2.12.83,1.53,1.53,1.18,4.36,2.48,2.36,2.48.59,2.48-.24,2.95-.71,2.59-.83,7.55-.71,2.24-2.71,5.54-3.77.47-2.48,2.95-4.72,8.96-.47,2v1.65l1.77,2.71.83,1.77.24,3.07-.83,2-1.3,1.18-4.48.83-1.53.71-2.12,2-1.18,2.59-1.3,3.77-.24,2.12.24,1.65,1.06,2.95-.12,2-.83,1.06-2.71,1.65-1.65,1.77-2.48,3.77-.47,2.24.59,2,2.83,2.83-.94,1.41-2,.94h-1.65l-7.78-2.48-2.48-.35-4.6,1.18-1.89.24-5.54-.24-1.3.35-2.36,1.18-1.41.24-5.9.12-1.41.35-.71.83v1.18l.47,2.36-.24,1.06-.83.59-1.77-.12-2-.71-2.59-1.77-.94-1.77-.12-1.53.59-1.41,2-3.3v-1.41l-.83-1.06-1.41-.47-4.01.35-2.24-.12-2.71-.47-6.13-2.59-6.96-5.07-1.77-.94-2.12-.59-12.5,2.48-4.48,3.42-1.3,1.18-1.18.71-1.53.24-2.12-.24-5.66-1.89-2.36.12-1.18.35-5.07,3.18-.94.94-1.41,2-.94.47-.83-.12-.83-1.3-.47-3.3-.59-.94-2.59-2.12-1.18-1.18-1.77-3.54-1.77-1.18-2.83-.83-17.45-.47-3.77-3.3v-6.84l.59-4.48-.59-1.53-1.18-1.06-2.48-2-1.18-2.24-2.12-8.49-1.65-3.77-1.65-2.59-4.95-4.48-1.53-2.12-.35-1.65.24-1.53.71-1.3,1.06-1.3,1.41-.94,4.6-2.12,1.06-.83,1.53-2.71,1.3-4.13.47-3.42-.59-1.89-1.65-1.3-6.25-2.48-1.06-.83-.24-1.18.47-1.77,2.71-5.31.94-2.48,1.41.47,14.86.35,2.24.35,1.3.71,1.3,1.06.94,1.77,2.12,5.42,1.3,2.36,1.3,1.53,1.53.59,4.6.47,1.18.47.94.71,1.18,1.89.94.71h1.18l2.71-.47,1.53-.12,4.6,1.3,2.12-.35,2.48-.94,1.77-.35,1.41.24,2.83,1.06,1.53-.12,1.18-.71.35-1.53-.24-2.95.35-1.3,1.77-3.3.83-1.3,1.41-.24,1.06.71.83,1.41.83,2.71.71.83,1.06.35,2.59-.94h1.3l1.06.35,2.48,2.83,1.18-.12,1.18-.83,1.06-2.59v-1.65l-.59-1.65-2.36-2.71-.47-1.65.59-1.18,1.77-.83h1.3l2.12.83.71-.35.47-2.36.59-1.06,1.41-.83,1.53-.24,2.71.12,1.65-.24,1.89-.47,1.18-1.06.47-1.77-.12-1.41-1.18-4.01-.59-1.3-1.65-2.12-.47-1.18.12-1.18.71-.94,2.59-.71.71-.59,1.06-3.07.94-1.65.47-3.07.35-1.18,5.78-2.36,2.83-1.89,1.53-.47,1.41.12,1.3.59h1.18l1.06-.83.83-2.24,1.18-2.24,1.89-2.24,4.36-2.36,4.13-1.3,7.31-.83,1.89-.71,1.06-1.65-.12-3.54.59-3.54.59-2.12.83-1.65.12-2.59-1.89-2.95,3.54-3.07,20.63,1.65h0Z"/>
      <path id="ROU297" class="cls-1" d="m418.24,517.4l-.35,2.71.24,1.65,1.77,5.31.35,2-1.77,5.19-7.78,2.59-7.07,3.89-2.12,1.77-1.3.47-1.06-.12-2.24-1.65-1.77-.94-1.89-.47-3.18-.12-2.36.71-4.24,2.12-5.54,1.18-2,.71-6.72,4.13-2,.47h-1.53l-3.77-1.77-1.89-.24-3.07.24-8.02,3.42-1.89.12-1.3-.47-2-1.89-1.06-.47-5.42-.35-1.41-.47-1.18-.94-.83-1.18-1.65-.83-1.3.24-26.41,9.67v-3.42l.94-2.83,2.71-4.01.71-1.53.24-2.71-.35-1.65-.71-1.89-1.65-2.36-.94-1.65-.24-1.65.47-1.06,1.53-2.36.59-1.77.24-1.65-.47-2.95-.12-3.89-.35-2.12-1.53-5.19-1.18-2.48-1.89-2.48-4.13-3.18-2.36-1.53-1.53-1.3-.83-1.41-.83-.83-1.3-.35-2.12.24-.71-.47-.24-1.41.24-2.59-.59-.83-3.3-.71-1.77-.59-1.65-1.18-3.77-5.07-1.06-4.13,1.06-.47.94-1.41.94-4.6.59-1.65.94-1.89,1.41-1.53,5.07-4.6.94-1.41.35-1.3-.35-1.18-1.3-.83-1.89.24-1.53.83-1.06-.59-1.06-1.53-2.24-5.78-1.3-2.24-.94-1.18-3.42-2.71-1.18-1.77-1.41-4.83-.35-3.3-1.18-2.95-4.24-4.48,5.78-7.55,1.41-3.07.83-2.95.12-2.24-.35-1.77-1.3-4.24.35-1.77.71-2.24,1.77-3.66.59-2.71.24-2.59-.35-5.9.59-2,1.06-1.77,2.95-2.59,1.65-1.06,2.24-.24,6.96,1.65,2.36.24,2.95-.47,2.36-1.3,2.59-2.36,2.83-4.72,1.18-2.95,2.12-4.72,8.14-6.13,6.13,3.89,1.06.35,11.44-1.18,1.18.35,1.18,1.53,1.3,2.59,2,5.19,2.12,7.9.83,1.06,1.41.59,5.66.83,1.53.71,1.3.94,1.65,2.24,1.53,2.83,2,5.31.12,1.77-.59.71-1.77-.59-.83.24-.71,1.3,1.18,2.71,12.03,15.92,2.95,1.41,2.48.35,1.41,1.18,4.83,12.62,2,3.3,3.3,4.01,1.06,2,3.18,13.8,2.71,7.43,1.06,3.77.47,2.71-.35,3.3.24,1.53.71,1.3,2.59,3.18.47,1.65-1.18,3.89.12,1.53.47,1.77,1.3,3.07,1.53,2.24,2.95,2.36,4.83,2.36,2.12,1.53,2.71,3.07,6.13,6.01.83,1.06.71,3.07-.24,5.9h0Z"/>
      <path id="ROU298" class="cls-1" d="m587.32,106.49l1.53,5.07,2.95,4.72,5.31,5.66,1.06,1.65.24,2-.94,1.77-1.06,1.18-7.43,2.59-10.61-.12-4.24,1.53-5.07,4.83-2,1.41-2.59.83-23.35.83-23.35-5.54-2.24.59-8.61,3.89-1.77,1.41-.94,1.65-2.48,5.66-1.18,1.53-2.59,1.65-10.49,2.24-1.77.83-.59.94-.47,3.89-.47,1.77-.83,1.77-7.55,11.2-4.83,4.72-20.63-1.65-3.54,3.07-3.18,1.65-1.41.47h-1.77l-1.53-.35-1.65-1.06-2.12-2.12-1.53-.94-2.48-1.18-1.18-1.41-.71-1.41-.24-1.41-1.65-1.06-2.95-.47-19.1.83-2.83-.47-15.56-5.31-4.95-2.59-2.48-.94-3.3-.59h-13.09l-6.25,2.24-11.44-2.12-2.12-1.18-1.65-1.53-.24-1.3.35-1.18.94-1.06,4.6-3.07,2.12-2.36.71-1.3,1.65-5.54,1.06-1.77,7.31-9.31,1.18-.71h1.18l.94.59,2.12,2.71,1.41,1.3,5.66,3.77,1.89.83h2.12l2.36-1.41,1.89-2.12,2.24-3.3,2.71-3.18,2.12-4.72.83-2.36,1.53-3.54.47-2.24-.24-2.48-.94-1.41-1.41-1.41-1.89-1.06-8.49-2.36-1.41-.94-.83-1.3-.12-1.53.47-2.59,1.41-1.53,2.12-.94,8.84.12,4.83,1.53,1.89.94,2.12.59,2.12.12,2.83-.59,3.07-1.53,17.69-13.56,1.06-2,.12-2-1.3-2.36-1.65-1.65-4.13-2.59-1.77-1.41-1.18-1.41-6.01-8.49-2-7.43,1.06-1.18,1.18-2.24,1.41-1.18,1.3-.35,4.72-.83,2.36.71,8.02.94,5.07,1.77,2.95.35,8.61-.47,2,1.06,6.48,6.01.83,2.83h2.71l12.5-5.19,3.89.24,2.12,1.53,6.13,1.65,2.48,1.18,4.48,4.36,2.48.24,7.31,2.83,2.71.12,8.25-4.24,6.13-.12,4.95-4.24,2.83-1.65h2.36l7.19,1.65,6.96-.12,2.48.71,5.78,3.42,3.18,2.48,1.89,2.48.83,2.95.12,2.48.59,2.24,2.24,2.59,4.13,2.59,10.14,4.01,1.77,1.53,1.53,2.24,4.24,7.55,2.83,4.48,2.36,1.65,5.78-1.06h0Z"/>
      <path id="ROU299" class="cls-1" d="m619.86,224.05l.83,6.96,1.77,3.54,2.83,2.83,1.18,1.65.83,2.24.47,2.83.35,11.08-2,12.26.71,4.13,2.71,7.55.94,2.95-.12,2.48-.71,4.01-.35,3.42.35,4.83-.24,1.77-1.06,1.77-5.42,4.48-1.77,2-4.48,6.96-1.53,1.65-2.12,1.41-5.31,2.24-1.65,1.06-7.31,7.66-.94,1.65-.59,2-.59,6.84-.59,1.41-1.3,1.3-7.78,3.18-.94,1.18v1.18l3.42,2.48.94,1.18v1.89l-.71,1.3-1.41.71-3.07.71-3.07,2.36-2.71,1.18-.94.94-.12,1.18.71,1.53,9.9,12.03,2.24,2.12,2.36.83,5.9-.24,2,.83,6.6,5.07,9.79,10.49-6.25,1.41-11.44.47-1.77.59-1.77.94-2.71,2.36-1.3,1.41-1.18,3.42.71,3.77-5.9-3.42-1.3-1.18-2-1.41-1.65-.71-2.71-.35-1.77.24-4.01,1.06-3.89.24-.94.35-1.41,1.18-.94.47h-2.83l-1.41.47h-1.65l-1.65-.83-2.24-2.71-1.3-4.01-.71-4.6-.59-10.38-.83-4.83.12-1.65.59-1.53.83-1.18.35-1.06-.47-.59-1.06-.12-2.48,1.3-1.77.47-2.36-.24-3.3-1.06h-1.65l-1.53,1.06-1.77,2.12-1.53.83-2.48.12-8.73-.59-3.89.83-2,.83-2.48.59-2.36-.35-6.84-2.83-4.48.94h-9.2l-2-1.3-1.89-2.59-.94-5.66-1.3-2.71-2.59-2.12-6.84-2.95-1.18-.83-3.89-4.24-.59-1.41.59-2.12,1.06-1.3,1.53-1.41.94-1.41.47-1.65-.71-2.12-1.41-1.65-1.89-1.3-3.89-.24-2.83-2.83-.59-2,.47-2.24,2.48-3.77,1.65-1.77,2.71-1.65.83-1.06.12-2-1.06-2.95-.24-1.65.24-2.12,1.3-3.77,1.18-2.59,2.12-2,1.53-.71,4.48-.83,1.3-1.18.83-2-.24-3.07-.83-1.77-1.77-2.71v-1.65l.47-2,4.72-8.96,2.48-2.95,3.77-.47,10.26,5.07,8.25,2.12,2.71.12,2-.35,5.66-2.36,4.36-.59,2.48-.83,1.65-1.18.71-1.41.94-5.78.83-1.53,2.36-2.95.71-1.3,1.18-3.42,1.18-2.12,2.59-3.42,3.07-2.48,2.24-1.06,1.53-.24,1.41.35,1.53.59,3.66,2.36,2,.94,2.24.24,1.53-.71.83-1.41.94-5.19.71-2.48,1.06-2.24,3.07-4.72.71-1.41,1.65-4.48.94-1.3,6.37-5.54,4.01-2.71,3.3-1.18,8.14-1.53,9.67-3.89,11.2,2.12,5.66,2.71h0Z"/>
      <path id="ROU300" class="cls-1" d="m446.77,180.07l1.89,2.95-.12,2.59-.83,1.65-.59,2.12-.59,3.54.12,3.54-1.06,1.65-1.89.71-7.31.83-4.13,1.3-4.36,2.36-1.89,2.24-1.18,2.24-.83,2.24-1.06.83h-1.18l-1.3-.59-1.41-.12-1.53.47-2.83,1.89-5.78,2.36-.35,1.18-.47,3.07-.94,1.65-1.06,3.07-.71.59-2.59.71-.71.94-.12,1.18.47,1.18,1.65,2.12.59,1.3,1.18,4.01.12,1.41-.47,1.77-1.18,1.06-1.89.47-1.65.24-2.71-.12-1.53.24-1.41.83-.59,1.06-.47,2.36-.71.35-2.12-.83h-1.3l-1.77.83-.59,1.18.47,1.65,2.36,2.71.59,1.65v1.65l-1.06,2.59-1.18.83-1.18.12-2.48-2.83-1.06-.35h-1.3l-2.59.94-1.06-.35-.71-.83-.83-2.71-.83-1.41-1.06-.71-1.41.24-.83,1.3-1.77,3.3-.35,1.3.24,2.95-.35,1.53-1.18.71-1.53.12-2.83-1.06-1.41-.24-1.77.35-2.48.94-2.12.35-4.6-1.3-1.53.12-2.71.47h-1.18l-.94-.71-1.18-1.89-.94-.71-1.18-.47-4.6-.47-1.53-.59-1.3-1.53-1.3-2.36-2.12-5.42-.94-1.77-1.3-1.06-1.3-.71-2.24-.35-14.86-.35-1.41-.47-2.12-3.66-4.83-4.83-7.78-4.48-1.3-1.53-.94-1.41-.47-1.53-3.66-7.19-5.31-8.37-1.53-3.89-.12-2.48,2.12-2.24,3.18-4.72.71-1.41.35-1.41.35-3.07.59-1.53,1.41-2.24.71-1.53,1.3-5.07,5.31-4.36,16.39-7.9,3.42-.94h2.48l13.68,3.89,1.65,1.06,2.95,2.95,1.89,1.06,5.19,1.3,1.3.71,2.12,2.48,1.53,1.06.71-.35,1.06-2.12.83-1.06,4.83-4.01.59-1.18.24-1.41-.24-1.41-1.06-2.48-1.41-2.59,6.25-2.24h13.09l3.3.59,2.48.94,4.95,2.59,15.56,5.31,2.83.47,19.1-.83,2.95.47,1.65,1.06.24,1.41.71,1.41,1.18,1.41,2.48,1.18,1.53.94,2.12,2.12,1.65,1.06,1.53.35h1.77l1.41-.47,3.18-1.65h0Z"/>
      <path id="ROU301" class="cls-1" d="m405.98,58.51l2,7.43,6.01,8.49,1.18,1.41,1.77,1.41,4.13,2.59,1.65,1.65,1.3,2.36-.12,2-1.06,2-17.69,13.56-3.07,1.53-2.83.59-2.12-.12-2.12-.59-1.89-.94-4.83-1.53-8.84-.12-2.12.94-1.41,1.53-.47,2.59.12,1.53.83,1.3,1.41.94,8.49,2.36,1.89,1.06,1.41,1.41.94,1.41.24,2.48-.47,2.24-1.53,3.54-.83,2.36-2.12,4.72-2.71,3.18-2.24,3.3-1.89,2.12-2.36,1.41h-2.12l-1.89-.83-5.66-3.77-1.41-1.3-2.12-2.71-.94-.59h-1.18l-1.18.71-7.31,9.31-1.06,1.77-1.65,5.54-.71,1.3-2.12,2.36-4.6,3.07-.94,1.06-.35,1.18.24,1.3,1.65,1.53,2.12,1.18,11.44,2.12,1.41,2.59,1.06,2.48.24,1.41-.24,1.41-.59,1.18-4.83,4.01-.83,1.06-1.06,2.12-.71.35-1.53-1.06-2.12-2.48-1.3-.71-5.19-1.3-1.89-1.06-2.95-2.95-1.65-1.06-13.68-3.89h-2.48l-3.42.94-16.39,7.9-5.31,4.36-1.18-3.3-.83-4.6-1.18-2.12-1.53-1.3-3.66-2.12-2-1.77-1.77-1.18-1.3-.35-1.3.35-2.95,1.65-1.18.24-1.89-.35h-2.24l-2.24.59-2.12-.47-1.18-.83-.71-1.41-1.41-3.89-1.06-2.12-3.54-5.54-2-3.66-1.89-2.59-5.07-3.89-1.41-1.41-1.06-1.77-1.53-3.66-3.18-4.83.35-2.59.35-1.3,3.07-4.36.35-1.65.47-3.3.47-1.41.94-1.18,2-1.53.94-.94,2.83-4.13,1.41-1.53,2.24-1.18,2.24-.83,1.53-.24,5.78.94,1.77-.12,1.65-.71,1.41-1.41,2.12-7.31,3.77-.83,9.2,4.83,4.36.71,4.72-.71,4.48-2,3.66-3.18,3.07-4.01,1.53-1.18,2.59-1.18,2.59-.35.83-.47,1.06-2-.24-1.41-.71-1.18v-1.65l1.3-2.48,2-1.41,4.95-1.77,2.12-1.89,3.07-5.9,2.12-2.36,2.48-.83,2.24-1.53,1.06-2.48-1.06-3.77,1.06-2.24,1.89-.12,2.12,1.06,3.89,2.48,2,.71,2-.35,5.31-4.24,1.77-3.18,2.71-8.73,2.48-3.77,2.59-1.18,2.71.35,8.73,3.07,2.12,1.53,5.19,6.13,5.9,5.19,2.83,3.3.83.35h1.89l1.77-.35,8.02,4.01,2.59-.12.47-.47h0Z"/>
      <path id="ROU302" class="cls-1" d="m632.95,527.89l1.89,3.42.71,1.65.47,1.77v2.12l-.59,2.95-.83,1.89-1.89,3.18-.94,1.89-.71,2.36-.59,2.83-.24,4.13-.94,3.66-1.18,2.83-.94,1.89-1.18,1.3-1.06.83-1.18.24-1.06-.35-.94-.83-1.41-2.36-.83-.83-.83-.12-1.3,1.3-1.3,3.18-.59,1.06-.59,2.36-.12,3.42,1.3,6.96,1.77,2.95,3.89,4.48,1.41,3.42.59,2.24v1.65l-.59,1.53-3.54,4.13-.71,1.53-.24,2.95.24,3.42,2,9.55.35,2.71-1.06,14.38-.24,1.89-.59,1.53-1.89,3.42-.35,2,.24,2,1.77,2.12,2.48,2.36-.47.83-2.83,1.77-.47,1.41.35,2.12,3.18,6.25,1.3,1.77,3.42,3.42,1.06.71,1.3.47,2.83.47,2.12,1.3.47,1.3-.12,1.53-2.24,4.24-.71,1.77.12,2.36,1.18,4.36-.35,3.18-2.71,4.95-4.01-2-2-.59-2.12-.24h-2.83l-5.66,1.06-2.59,1.53-2.71,2.71-1.77.71-3.07.83-3.89-.59-1.18.24-1.3.94-1.53,1.89-2.24,1.53-1.89.47-2.24.12-6.72-1.77-5.31,1.41-2.71-1.89-6.01-.47-1.18-.83-.83-1.41-.71-2.71-.47-7.66-1.53-5.78.12-3.07.71-2.24.12-1.18-1.18-7.9-1.3-4.48-.24-2.12-.59-3.89-.94-2.71-3.07-5.07-.35-1.65,1.06-1.89,1.06-.83,2.24-.94.71-1.06-.59-.94-.94-.71-2.24-.24-1.89.47h-2l-2-.59-2.48-2.48-1.41-1.89-5.54-11.67-.94-2.36-.12-2,.35-3.18-.35-1.41-.59-.94-1.18-.24-1.06.71-1.41,2-1.65,4.24-.83,1.06-5.07,4.24-1.06.47-1.18-.35-.83-.71-1.41-4.24,3.18-2.36,4.83-5.9.83-1.53.35-1.41-.12-1.53-.83-2.12-1.89-3.07-.12-1.41.94-3.66,1.41-10.73,3.77-16.62-.24-4.13-.71-2.59-.94-2.12-.83-1.18-1.89-2.24-.59-1.77-.24-2.24.47-3.66.35-4.36-1.18-4.24-.12-1.89.24-1.65.71-1.41,2-2.59.35-1.65-.24-2.12-2.59-11.08v-2l.35-1.89,3.66-7.07,1.65-7.78-1.53-5.66,22.64-6.6,7.9-.71,1.89.47,1.65.94,2,2.12,1.77,2.95.94.59,1.53-.47,2.24-1.41,1.41-.59,1.53-.12,3.66.24,7.66-.71,13.91,1.89,2.95,1.77,4.72,4.13,2.12,1.41,2,.71,2,1.41,1.77,2.36,6.96,15.45,4.13,4.95h0Z"/>
      <path id="ROU303" class="cls-1" d="m592.15,407.51l-2.59,3.54-7.43,6.13-6.96,3.77-.71.83-.35,1.18.83,2.36.12,1.3-.35,1.77-1.06.59-.83-.12-2-.83-1.41.24-2.12,1.18-1.89,2-5.54,2.95-.83,1.06-.12,1.41.47,1.06,1.77,2,.47,1.41-.24,3.42.35,1.18.71.94,1.77,1.06.35,1.18-.71,1.89-1.65,1.3-2.12.94-2.36.59-4.48,1.89-1.89,1.53-.59,1.53.12,1.77,3.89,8.25,1.3,4.36,1.06,5.9.47,5.07.35,2.71.24,3.66-22.64,6.6-25.47-.24-17.33,4.01-1.77.59-12.5,7.19-2.36.12-1.89-.35-4.36-2-4.72-.59-20.75.83-2,.59-2,2.36-1.18.94-1.53.35-2.12.12-1.65.59-3.89,3.07-2.48,1.53-1.53.59-2.59-.24,3.42-5.07-.12-1.65-.47-2.36-3.07-5.31-1.3-3.89.35-2.83.94-3.07,1.06-5.31-.24-3.3-.83-2.95-.94-2.59-.83-4.6.35-3.18,2.83-9.08.83-1.89,1.77-2.36,1.77-1.06,2.83.35,1.18-.12,1.65-1.65,1.65-3.18,4.24-6.6.24-1.53-.83-.94-1.41-.83-3.18-.83-1.18-.59-.83-1.18-.59-5.9.59-.94.94-.47,2.36.24,3.42,2,1.18.24,2-.59,2.95.12,1.53-.24,1.89-1.18,1.65-1.41,1.89-2.36.35-2.12-.47-1.65-.83-1.65-.59-1.77.12-2.95.83-1.65,1.53-1.06,8.61-1.89h1.41l2.24,1.41,2.24,2.24,1.06.83,1.06.24,1.06-.47.47-.94.59-3.3.83-2.59,1.41-2.24,10.38-11.2,2.71-2.48,1.89-2.12,2.48-1.53,1.41-1.41.47-1.41.12-1.89-.59-11.91h9.2l4.48-.94,6.84,2.83,2.36.35,2.48-.59,2-.83,3.89-.83,8.73.59,2.48-.12,1.53-.83,1.77-2.12,1.53-1.06h1.65l3.3,1.06,2.36.24,1.77-.47,2.48-1.3,1.06.12.47.59-.35,1.06-.83,1.18-.59,1.53-.12,1.65.83,4.83.59,10.38.71,4.6,1.3,4.01,2.24,2.71,1.65.83h1.65l1.41-.47h2.83l.94-.47,1.41-1.18.94-.35,3.89-.24,4.01-1.06,1.77-.24,2.71.35,1.65.71,2,1.41,1.3,1.18,5.9,3.42h0Z"/>
      <path id="ROU304" class="cls-1" d="m535.56,497.12l1.53,5.66-1.65,7.78-3.66,7.07-.35,1.89v2l2.59,11.08.24,2.12-.35,1.65-2,2.59-.71,1.41-.24,1.65.12,1.89,1.18,4.24-.35,4.36-.47,3.66.24,2.24.59,1.77,1.89,2.24.83,1.18.94,2.12.71,2.59.24,4.13-3.77,16.62-1.41,10.73-.94,3.66.12,1.41,1.89,3.07.83,2.12.12,1.53-.35,1.41-.83,1.53-4.83,5.9-3.18,2.36.24-8.14-1.53-2.71-1.3-.35-1.18.12-1.3.71-1.89,2.36-3.54,6.25-1.06,4.13-.24,2.36-.94,3.89-.71,1.89-1.06,2.24-2,3.07-2.36,2.48v1.53l.59,3.77,1.65,7.55-.47,2.95,1.41,2.24,1.41,3.3.94,4.01.35,3.18-1.89,1.65-1.18-.59-.94-1.18-.94-2.36.24-2.95-1.06-1.06h-1.18l-1.53,1.18-.59,1.53-.83,3.66-.94,1.3-3.66,2.12-2.48.24-2.95-.83h-1.65l-1.3.24-1.53.83-1.3,1.41-3.89,5.66-1.53.71-.94-.12-.94-.83-1.18-2-.94-1.3-2.48-1.41-1.41-.24-2.95.71-4.72,2.95-3.54-3.66-2-3.07-1.53-2.71-2.48-8.61-1.18-1.53-1.18-1.06-4.13-2.59-1.89-.83-2.24-1.3-.94-1.3-.59-1.53-.12-1.41-.94-4.13,1.77-10.14.47-9.31-1.77-20.16.24-3.42.59-2.36,1.41-3.89,3.42-13.8.12-2.36-.47-6.01.47-2.59,2-5.9.24-2.12-.59-2.48-1.3-3.18-.94-4.83.24-3.42,1.65-6.84-.59-2-.94-1.41-2.12-1.65-2.12-.47-7.66.83-2.24-.12-1.89-.35-2.36-1.3-1.41-.47h-6.01l-3.77-1.18,1.77-5.19-.35-2-1.77-5.31-.24-1.65.35-2.71,5.19-.83,2.59.24,1.53-.59,2.48-1.53,3.89-3.07,1.65-.59,2.12-.12,1.53-.35,1.18-.94,2-2.36,2-.59,20.75-.83,4.72.59,4.36,2,1.89.35,2.36-.12,12.5-7.19,1.77-.59,17.33-4.01,25.47.24h0Z"/>
      <path id="ROU305" class="cls-1" d="m650.99,399.85l-.83,2.48.47,1.65,1.06,1.89,4.01,3.07,1.65,2.24,1.06-1.06,2.48-.12,2.59.71,1.53,1.18.47,3.18-1.53,6.01.35,3.07-.83,2.48-.24,3.89.12,11.67.47,2.71,1.18,2.48,8.73,5.9,3.89,4.01.35,6.01h2.24l1.89-1.3,1.77,1.18,1.77-.12,1.77-.71,1.89-.35.83-1.18,1.89,2.95,2.24,1.18,11.55,4.36,3.07,2.24,3.66,3.77,2,3.07,1.89,3.89,1.3,1.06,2.36,1.06,2.36,1.3,2.48,2.12,3.77,6.01,2.71,2.83-6.84,14.62-5.78-1.18-6.6-3.89-2.71-.35-1.65.71-1.06,1.41-.83,4.01-.59,2.24-1.18,2.12-2.36,2.12-2.12.59-1.77-.35-1.06-.94-1.65-2.83-.83-1.18-1.53-.94-1.65.12-3.42,1.18-1.77-.35-5.31-2-5.31-1.06-2.83.12-20.99,3.77-1.65.59-2,1.41-2.48,1.18-.94,1.06-1.06,2.24-.59,1.89-2.36,2.95-7.55,2-4.13-4.95-6.96-15.45-1.77-2.36-2-1.41-2-.71-2.12-1.41-4.72-4.13-2.95-1.77-13.91-1.89-7.66.71-3.66-.24-1.53.12-1.41.59-2.24,1.41-1.53.47-.94-.59-1.77-2.95-2-2.12-1.65-.94-1.89-.47-7.9.71-.24-3.66-.35-2.71-.47-5.07-1.06-5.9-1.3-4.36-3.89-8.25-.12-1.77.59-1.53,1.89-1.53,4.48-1.89,2.36-.59,2.12-.94,1.65-1.3.71-1.89-.35-1.18-1.77-1.06-.71-.94-.35-1.18.24-3.42-.47-1.41-1.77-2-.47-1.06.12-1.41.83-1.06,5.54-2.95,1.89-2,2.12-1.18,1.41-.24,2,.83.83.12,1.06-.59.35-1.77-.12-1.3-.83-2.36.35-1.18.71-.83,6.96-3.77,7.43-6.13,2.59-3.54-.71-3.77,1.18-3.42,1.3-1.41,2.71-2.36,1.77-.94,1.77-.59,11.44-.47,6.25-1.41,6.6-1.06,6.84-3.18h2.12l2.12.47,2.59,1.3,2,2,1.89,1.41,5.54,2,3.42,3.77h0Z"/>
      <path id="ROU306" class="cls-1" d="m750.15,391.95l5.19-1.77,4.01-3.54,1.06-.12.94.47,1.77,2.12.94.94,4.6,2.83,1.18,1.53.71,1.53-.35,1.18-1.65,1.89-.35,1.3.71,1.65,2.36,1.18,1.41,1.06,1.06,1.3.59,1.53,1.18,3.89,1.65,3.07,2,1.06-7.9,12.73-2,5.9-.24,2.59-1.77,9.08-1.06,8.73,1.18,3.77.59,1.65.35,2-.24,2.12-2.36,4.95-.47,2.12-.24,2-.47,2.36-1.06,2.36-2,3.07-.71,2.48-.94,4.13-1.18,1.65-2.24,1.18-2.12-.12-1.41-.71-2.24-2.24-1.3-.83-1.3-.24-1.18.47-1.18,1.89-.47,1.77-.47,3.3-.83,1.06-1.53.59-6.13.24-4.83,1.53-2.71-2.83-3.77-6.01-2.48-2.12-2.36-1.3-2.36-1.06-1.3-1.06-1.89-3.89-2-3.07-3.66-3.77-3.07-2.24-11.55-4.36-2.24-1.18-1.89-2.95-.83,1.18-1.89.35-1.77.71-1.77.12-1.77-1.18-1.89,1.3h-2.24l-.35-6.01-3.89-4.01-8.73-5.9-1.18-2.48-.47-2.71-.12-11.67.24-3.89.83-2.48-.35-3.07,1.53-6.01-.47-3.18-1.53-1.18-2.59-.71-2.48.12-1.06,1.06-1.65-2.24-4.01-3.07-1.06-1.89-.47-1.65.83-2.48,3.07-6.13,1.89-1.77-.12-1.65.47-1.06,4.48-4.95,2.59-1.89,1.89-2.12,4.48-6.48,2-1.89,4.13-2.71,1.53-1.53,1.41-1.06,1.65-.35,1.89,1.06,3.3,2.95,1.41,1.41.83,1.53.94,5.19,4.6,8.96,4.95,4.01,1.18,1.41,1.06,1.77,2.12,1.77,3.54,1.77,11.55.94,32.31-7.07h0Z"/>
      <path id="ROU307" class="cls-1" d="m677.99,227.47l2.83.71,3.42,1.53,1.89,1.18,1.65,2.12,1.53,2.71,2.12,5.42,1.53,3.07,2.24,2.95,4.13,3.18,1.77,1.77,1.06,1.77.71,3.07-.12,1.41-.47.83-.83.12-2.24-.47-1.3.12-1.53,1.3-.24,1.53-.12,1.89,1.41,30.18.59,2.24,1.06,2,1.89,2.24,4.13,4.13,1.41.83,1.3.12.47-1.06-.12-1.65-.83-3.89v-1.65l1.3-.83,1.18-.35,10.14,2.48.35,13.44,2.12,8.25,1.65,2.95,1.77,2.71,1.65,3.3.12,2.12-1.3,1.18-1.65.71-1.77,1.53-1.06,2.36-.59,5.07.71,2.59,1.77,1.65,5.07,1.41,6.6.94,1.77,1.06,1.89,2,.59,2.12.12,2.12-.94,4.24-.12,2.48,1.06,1.18h1.77l3.18-.94,4.95-2.71,1.77-.35,1.77.24,2.12,1.3.71,1.53.24,1.65-1.77,4.72-.24,1.53-.59,7.31-.47,1.89-1.53,3.18-.59,1.89-.94,6.84-32.31,7.07-11.55-.94-3.54-1.77-2.12-1.77-1.06-1.77-1.18-1.41-4.95-4.01-4.6-8.96-.94-5.19-.83-1.53-1.41-1.41-3.3-2.95-1.89-1.06-1.65.35-1.41,1.06-1.53,1.53-4.13,2.71-2,1.89-4.48,6.48-1.89,2.12-2.59,1.89-4.48,4.95-.47,1.06.12,1.65-1.89,1.77-3.07,6.13-3.42-3.77-5.54-2-1.89-1.41-2-2-2.59-1.3-2.12-.47h-2.12l-6.84,3.18-6.6,1.06-9.79-10.49-6.6-5.07-2-.83-5.9.24-2.36-.83-2.24-2.12-9.9-12.03-.71-1.53.12-1.18.94-.94,2.71-1.18,3.07-2.36,3.07-.71,1.41-.71.71-1.3v-1.89l-.94-1.18-3.42-2.48v-1.18l.94-1.18,7.78-3.18,1.3-1.3.59-1.41.59-6.84.59-2,.94-1.65,7.31-7.66,1.65-1.06,5.31-2.24,2.12-1.41,1.53-1.65,4.48-6.96,1.77-2,5.42-4.48,1.06-1.77.24-1.77-.35-4.83.35-3.42.71-4.01.12-2.48-.94-2.95-2.71-7.55-.71-4.13,2-12.26-.35-11.08-.47-2.83-.83-2.24-1.18-1.65-2.83-2.83-1.77-3.54-.83-6.96,4.72,1.89h3.42l1.65-.71,1.06-1.18.71-1.53.24-3.18.35-1.65,1.18-2.12,2.12-1.41,2.48-1.06,3.07-.71,2.12.12,2.12.94,13.91,9.55,1.41,1.41,1.18,1.77,1.53,1.65,2,1.3,1.89.24,2.59-.35,1.77-.59,6.6-.94h0Z"/>
      <path id="ROU308" class="cls-1" d="m983.01,266.73l-.94.59-6.37.83-2.12,1.3-2,1.53h-1.41l-1.53-.71-2.24-1.77-1.06-.12-1.53.94-.47,1.18-1.06.83h-1.77l-4.6-1.53-4.01-2.59-1.3-.35-2,.24-1.65-.12-1.3-1.06-.12-1.3,2-6.6.12-2-.47-1.77-1.06-1.06-1.53-.24-1.65,1.18-.59,1.65v3.42l-.35,1.06h-.83l-1.41-.94-4.72-6.25-3.42-3.54-7.43-5.9-1.65-.83h-1.41l-.94,1.18-.24,1.3.94,2.71.12,2.95-.59,2.71.24.83.83.59,1.41.12,2.24-.35,1.18.83-.24,2.12-.59,1.18-1.53.83-2.48.35-4.6-.83-2.24-.94h-1.77l-.83,1.18-1.41,2.83-1.3,1.18-4.6,1.53-2.24.12-3.07-.71-2.24-.83-2.36-.71h-2.36l-9.31,1.65-14.38-.94-.59-2.48-.71-1.53-2.24-3.89-2.59-3.54-1.41-2.24-.12-1.89.83-1.77,1.65-1.65,2.12-1.18,2.24-.94,3.66-.94,1.06-.83.47-1.3-.71-1.53-1.65-2-2.83-2.48-1.53-1.77-1.18-1.77-.94-3.42-1.06-1.41-1.53-.83-2.83-.24-2,.47-1.65.94-4.24,5.07-1.3,1.18-1.53.59-2.24-.24-5.9-1.3-1.77.35-1.06,1.06-1.06,3.07-.71,1.18-1.06.59-1.89.12-5.07-1.18-3.18-1.77-7.31-5.66-4.83-2.71-3.54-.94-2.83-.12-2.36.35-2.12-.12-1.65-.94-1.06-2.48-.94-2.83-3.66-9.31-6.37-9.31-8.61-8.49,9.55-2.24,1.3-.94,1.06-1.41-.71-1.3-7.66-7.07-1.3-3.07.47-1.65,2.12-.59,12.97,1.53,2.71-.47,1.06-1.06.59-1.65.12-2.24,1.3-3.42.47-2-.35-1.65-1.77-2.59,4.95-4.83,1.77-3.77.71-2,.83-1.06,1.06-.59,1.3.12,3.66,2.48,2,.47h20.87l1.18.47,2.12,1.65,1.89,2.36,1.3,1.41,1.53,1.18,2.36.71,1.89-.35,2.59-.94,1.3-1.06.59-1.3-.12-1.53-2.24-4.95-.24-1.65.47-1.3.83-1.3,1.41-1.06,1.41-.24.94.35,2,1.65,3.54.71,2.24.94,2.12,1.18,1.65.47h3.42l1.41-.83,1.06-1.3.47-3.18.71-1.3,2.12-2.36,2.12-2.36,1.41-.94,1.53-.12,2,.47,5.07.12,6.84-3.3,1.18,4.24-.12,1.65.83,1.06,1.65.35.94,4.95.71,2.71,1.41,1.18,1.06.12,1.77,1.18,3.3.12,1.89.59,1.77,1.06,1.65,1.53.83,1.77-.94.83-.71,1.41-.83,4.01,2.12,2-.94,5.66,1.77,1.18,1.65,1.41,3.07,7.19,1.53,2.71.94.59,3.42.71,3.3,2.24,3.07.83,1.3,1.41,2.48,4.36-.12,2.36,1.3,2.24,3.18,4.13,1.53,4.95.83,2.71-.12.71-1.41.47,1.41,2,5.42,2.95v1.3l-.71,1.3,2.83,1.77,3.77,4.24,3.54,2.36,1.53,1.41.12,2.59,2.95.59,2.95,1.89,2.71,1.3,2.48-1.18,1.06,2.95,4.01,5.07,1.77,3.18,2.36,6.6.47,3.18-1.06,2.71,2,1.41.12,2.12-.12,2.12,1.41,1.77-.24,3.54h0Z"/>
      <path id="ROU309" class="cls-1" d="m778.91,191.62l8.61,8.49,6.37,9.31,3.66,9.31.94,2.83,1.06,2.48,1.65.94,2.12.12,2.36-.35,2.83.12,3.54.94,4.83,2.71,7.31,5.66,3.18,1.77,5.07,1.18,1.89-.12,1.06-.59.71-1.18,1.06-3.07,1.06-1.06,1.77-.35,5.9,1.3,2.24.24,1.53-.59,1.3-1.18,4.24-5.07,1.65-.94,2-.47,2.83.24,1.53.83,1.06,1.41.94,3.42,1.18,1.77,1.53,1.77,2.83,2.48,1.65,2,.71,1.53-.47,1.3-1.06.83-3.66.94-2.24.94-2.12,1.18-1.65,1.65-.83,1.77.12,1.89,1.41,2.24,2.59,3.54,2.24,3.89.71,1.53.59,2.48.71,5.66,2.83,7.66.47,2.95v2l-1.41,2.95-4.95,2.48-3.54-1.06-1.3-.71-10.02-2.36-3.07.12-8.73,1.3-2.48-1.77-1.77-1.89-.71-1.77.12-2.48-.12-1.3-.71-1.53-2.59-1.89-1.3-.12-.71.71.24,2.71-.24,1.53-.83,1.18-3.3,2.83-.59,1.18-.12,1.41.24,1.53v1.41l-.71,1.41-1.41,1.18-2,.94h-2l-1.53-.83-3.77-2.83-3.3-1.18-2.36.24-1.53.94-1.06,2.48-1.06,1.3-7.66,3.3-1.77,1.18-2.36,3.07-1.06.94-1.65.24-5.07-1.06-4.48,1.06h-4.72l-1.3.47-1.18,1.06-2.12,3.07-1.18,1.06-2.12.24-9.9.12-1.41-.35-.35-.71.59-3.54-.35-1.3-1.53-2.59-1.41-2.83-.83-.94-1.77-.71-1.53.24-1.41.83-7.66,5.54-3.18,1.41-2.36.35-1.65-.35-3.66-2-2.83-.83-1.65.12-4.6,1.3-10.14-2.48-1.18.35-1.3.83v1.65l.83,3.89.12,1.65-.47,1.06-1.3-.12-1.41-.83-4.13-4.13-1.89-2.24-1.06-2-.59-2.24-1.41-30.18.12-1.89.24-1.53,1.53-1.3,1.3-.12,2.24.47.83-.12.47-.83.12-1.41-.71-3.07-1.06-1.77-1.77-1.77-4.13-3.18-2.24-2.95-1.53-3.07-2.12-5.42-1.53-2.71-1.65-2.12-1.89-1.18-3.42-1.53-2.83-.71.12-4.01,1.41-4.72,1.53-3.18,5.54-6.72,1.89-1.77,4.83-3.18,2.12-1.89.94-1.77.24-1.77-.24-1.53-.94-1.3-2.48-2.36-2.12-3.07-.35-1.3.47-1.06.94-.59,1.41-.12,1.53.59,1.65,1.18,5.66,5.31,1.53,1.18,1.65.24,2.24-.35,9.08-4.36,1.77-.12,1.77.59,1.53,1.06,2.12.71,2.36.12,6.37-1.77,14.03.12,4.48-1.18,11.67-6.13,2.83-.71,2.48.12,2.48.47,2.12.94,1.89,1.41,4.36,5.07h0Z"/>
      <path id="ROU310" class="cls-1" d="m724.56,511.27l7.55,8.96,5.07,3.77,1.65,1.65,1.65,2.59,4.36,9.31.59,2.71-.12,1.65-.83,1.18-.24,1.53.59,1.89,3.54,3.66,1.3,1.77.47,3.54.47,1.3.83,1.18,1.77,1.06,1.77.35,5.42-.47,1.41.47,1.3,1.06.59,2.24,1.3,1.18,1.06.24,2.95-2.59,1.06-.35.59.35.12,1.3-.47,3.18.35,2,1.77,2,2.95,2.36,1.06,1.65.83,1.77.83,5.19.24,6.72.59,2.59.83,1.89,2.12,1.18,3.42,1.06,1.06.47,2.83,2.71.94,1.3.71,1.53-.24,2.48-1.06,1.41-2.24,2.24-.83,1.3v1.65l.47,1.77,4.72,4.72,2.36,4.24-3.18,4.01-1.53,2.83-2.24,1.89-1.65.94-1.77.47-6.72-.59-1.65.35-1.77,1.41-2.12,2.48-1.41.59-2.71-.24-2.95-1.65-1.41-.35-1.77.12-4.24,2-4.48,4.24-5.19-.35-1.77.24-3.3-1.3-2.83-.12-7.55,2.48-7.66.12-.94,2-.71.71-1.41-.47-2.48-1.3-1.53-1.3-8.61-10.61-2.12-1.18-1.89-.71-5.9-.83-1.41-1.06-.94-1.65-.47-3.18.71-5.07-.12-2.48-.59-2.48-1.65-2.83-1.3-1.41-.94-.47-3.42.94h-1.41l-2.71-1.18-1.3-1.18-1.06-1.89-.94-2.24-.94-4.36-.83-7.55-.47-1.89-1.06-1.89-5.19-5.78-6.84-13.32-1.41-2.12-2.48-2.71-1.89-3.3-.12-2.48.35-4.83-.35-1.77-.83-2.12-1.41-2.36-1.3-1.41-3.77-2.83-.83-1.53-.59-2.12-.83-7.9-2.24-11.08,2-1.41,1.65-.59,20.99-3.77,2.83-.12,5.31,1.06,5.31,2,1.77.35,3.42-1.18,1.65-.12,1.53.94.83,1.18,1.65,2.83,1.06.94,1.77.35,2.12-.59,2.36-2.12,1.18-2.12.59-2.24.83-4.01,1.06-1.41,1.65-.71,2.71.35,6.6,3.89,5.78,1.18h0Z"/>
      <path id="ROU311" class="cls-2" d="m800.85,159.79l1.77,2.59.35,1.65-.47,2-1.3,3.42-.12,2.24-.59,1.65-1.06,1.06-2.71.47-12.97-1.53-2.12.59-.47,1.65,1.3,3.07,7.66,7.07.71,1.3-1.06,1.41-1.3.94-9.55,2.24-4.36-5.07-1.89-1.41-2.12-.94-2.48-.47-2.48-.12-2.83.71-11.67,6.13-4.48,1.18-14.03-.12-6.37,1.77-2.36-.12-2.12-.71-1.53-1.06-1.77-.59-1.77.12-9.08,4.36-2.24.35-1.65-.24-1.53-1.18-5.66-5.31-1.65-1.18-1.53-.59-1.41.12-.94.59-.47,1.06.35,1.3,2.12,3.07,2.48,2.36.94,1.3.24,1.53-.24,1.77-.94,1.77-2.12,1.89-4.83,3.18-1.89,1.77-5.54,6.72-1.53,3.18-1.41,4.72-.12,4.01-6.6.94-1.77.59-2.59.35-1.89-.24-2-1.3-1.53-1.65-1.18-1.77-1.41-1.41-13.91-9.55-2.12-.94-2.12-.12-3.07.71-2.48,1.06-2.12,1.41-1.18,2.12-.35,1.65-.24,3.18-.71,1.53-1.06,1.18-1.65.71h-3.42l-4.72-1.89-5.66-2.71-11.2-2.12-.71-12.73.71-5.54.47-1.89.47-2.83-.24-1.06-.59-.35-2.36.24-1.41-.35-1.41-1.89.12-1.89.94-2.48,1.65-2.83.94-3.18-.12-2.12-.47-1.77-1.53-3.3-.94-1.53-2.48-3.18-1.06-2-.24-1.3.59-1.06.83-.71,1.18-.12,1.89.24,1.3-.83.35-1.65-.12-1.18-1.65-2.71.24-.94.94-.83,3.18-1.77,1.41-1.53.83-2.59-.12-2.12-.71-1.89-1.41-2.83-3.3-3.89-9.79-8.02-1.41-1.65,7.43-2.59,1.06-1.18.94-1.77-.24-2-1.06-1.65-5.31-5.66-2.95-4.72-1.53-5.07,9.31-1.65,7.78-3.42,5.19-5.07,12.03-20.04,5.42-3.66,61.08-6.72,8.14-3.3,6.6-.83,3.77-1.77,2-.35,6.01.59,7.9-2.36,9.08-.12,2.12,11.32.83,2.12,1.89,1.77,3.3,2.12,5.07,4.36,6.37,3.54,2.95,2.95,14.15,18.16,2.36,4.13,8.25,10.26,1.53,2.59,4.01,4.13,1.3,2.24,1.06,4.01,2,9.67.12,2.24-.35,4.83.24,2.12.71,1.89,3.07,4.36,3.07,2.48,5.19.71h0Z"/>
      <path id="ROU312" class="cls-1" d="m871.35,284.89l2.48,3.42,1.77,1.89,5.66,4.83,2.36,2.59,1.41,3.18.12,4.48-.35,4.13.47,4.13,12.97,22.76,4.72,11.08,2.83,11.2,1.3,8.37.94,22.76-3.77-.47-4.36-1.3-1.18.12-1.65,2.24-.94.94-1.41.35-2.24-.24-5.31-3.3-2.48-.47-3.18.12-9.2,1.89-3.07,1.77-1.41,1.53-2.12,2.95-1.3,1.3-3.42,2.24-1.18,1.41-1.41,2.71-1.06.83-1.65.35-6.48-2.36-1.65-.35-1.89.24-2.12,1.06-1.06,1.18-.94,2.59-.47.71-1.18.24-4.83-2-1.89-.24h-2.12l-2.48.59-2-.24-3.07-.83-5.42-.24-3.77-.71-12.03.83-2,.59-1.41,1.3-.83,1.53-.35,1.65-.35,5.19-3.77,1.77-14.38-2.12-2-1.06-1.65-3.07-1.18-3.89-.59-1.53-1.06-1.3-1.41-1.06-2.36-1.18-.71-1.65.35-1.3,1.65-1.89.35-1.18-.71-1.53-1.18-1.53-4.6-2.83-.94-.94-1.77-2.12-.94-.47-1.06.12-4.01,3.54-5.19,1.77.94-6.84.59-1.89,1.53-3.18.47-1.89.59-7.31.24-1.53,1.77-4.72-.24-1.65-.71-1.53-2.12-1.3-1.77-.24-1.77.35-4.95,2.71-3.18.94h-1.77l-1.06-1.18.12-2.48.94-4.24-.12-2.12-.59-2.12-1.89-2-1.77-1.06-6.6-.94-5.07-1.41-1.77-1.65-.71-2.59.59-5.07,1.06-2.36,1.77-1.53,1.65-.71,1.3-1.18-.12-2.12-1.65-3.3-1.77-2.71-1.65-2.95-2.12-8.25-.35-13.44,4.6-1.3,1.65-.12,2.83.83,3.66,2,1.65.35,2.36-.35,3.18-1.41,7.66-5.54,1.41-.83,1.53-.24,1.77.71.83.94,1.41,2.83,1.53,2.59.35,1.3-.59,3.54.35.71,1.41.35,9.9-.12,2.12-.24,1.18-1.06,2.12-3.07,1.18-1.06,1.3-.47h4.72l4.48-1.06,5.07,1.06,1.65-.24,1.06-.94,2.36-3.07,1.77-1.18,7.66-3.3,1.06-1.3,1.06-2.48,1.53-.94,2.36-.24,3.3,1.18,3.77,2.83,1.53.83h2l2-.94,1.41-1.18.71-1.41v-1.41l-.24-1.53.12-1.41.59-1.18,3.3-2.83.83-1.18.24-1.53-.24-2.71.71-.71,1.3.12,2.59,1.89.71,1.53.12,1.3-.12,2.48.71,1.77,1.77,1.89,2.48,1.77,8.73-1.3,3.07-.12,10.02,2.36,1.3.71,3.54,1.06,4.95-2.48h0Z"/>
      <path id="ROU313" class="cls-1" d="m971.46,526.59l-.71,3.18-.35,5.19-.24,1.3-1.3,2.24-.59,2.71-2.24,3.66,6.84,6.01,4.24,1.77,4.36-1.77,1.53,1.53.94,2.12-1.53,2.36-1.89,3.66-.59,3.42,1.89,1.53,2.36.71,2.48,1.89,2.12,2.36,1.06,2.24-.47,2.36-1.41,2.36-1.89,1.77-1.65.83-.35.83.83,5.66.71,1.41-.12,2.12-1.18,1.89-.35,1.3,1.3,6.37.12,4.01-1.77,1.77-.47.83.12,9.31-.94,1.77-3.3,4.48-1.3,2.71-.47,4.24-.83,3.66-1.89,3.3-2.48,2.36-2.59.94-2.36-.47-3.66-2.48-2.48-.59-2.36.12-2,.35-3.77-3.54-.94-1.3-2.24-1.41-2.59-.47-5.78.59-2.83.94-2.12,1.18-2.83.94-4.83,1.06-33.96-.94-3.54-1.41-1.53-.83-1.65-.24-2.12.71-2.83,1.41-2.48.12-2-.24-10.26-4.24-.47-1.3.83-8.14-.83-2.12-2.48-2.59-.35-1.65.47-1.65,1.65-1.53,1.3-.71,4.48-1.18,1.06-1.65.94-3.07,1.3-6.48.59-3.77.12-2.83-.24-1.65-.59-1.06-1.18-.47-2.95.12-1.65-.24-.94-.59-.47-1.3.12-4.95-.12-1.77-.83-1.41-.94-.83-2.71-1.06-.71-1.18-.12-1.89.12-3.54-.12-1.53-.47-1.3-.83-.94-1.06-.59-1.18-.12-1.06.47-.83.71-.12,2.36-.35,1.18-1.18,1.06-1.41.35-1.18-.35-.83-.71-1.89-4.83.12-2.59,1.06-1.41,1.77-1.53,9.9-3.42,5.9.83h1.53l4.95-1.53h1.65l3.18,1.3.71-.71.47-2.59-.59-4.01v-1.89l.83-1.41,2.36-1.06h1.89l1.89.35,1.53-.35,1.18-1.41.94-4.01.83-2.48,2.24-3.89.47-3.42,1.18-3.66,3.07-4.83,3.18-4.13,2.24-2,2.48-1.65,7.31-2.71,7.19,3.18,4.36-.24,2.24-.47,1.53.35,1.06,1.06,2.48,3.07,4.24,3.66,6.84,3.77,4.36.83,8.14-.35,2.95.47,3.07,1.06,7.55.94h0Z"/>
      <path id="ROU314" class="cls-1" d="m896,528.25l-.47,3.42-2.24,3.89-.83,2.48-.94,4.01-1.18,1.41-1.53.35-1.89-.35h-1.89l-2.36,1.06-.83,1.41v1.89l.59,4.01-.47,2.59-.71.71-3.18-1.3h-1.65l-4.95,1.53h-1.53l-5.9-.83-9.9,3.42-1.77,1.53-1.06,1.41-.12,2.59,1.89,4.83.83.71,1.18.35,1.41-.35,1.18-1.06.35-1.18.12-2.36.83-.71,1.06-.47,1.18.12,1.06.59.83.94.47,1.3.12,1.53-.12,3.54.12,1.89.71,1.18,2.71,1.06.94.83.83,1.41.12,1.77-.12,4.95.47,1.3.94.59,1.65.24,2.95-.12,1.18.47.59,1.06.24,1.65-.12,2.83-.59,3.77-1.3,6.48-.94,3.07-1.06,1.65-4.48,1.18-1.3.71-1.65,1.53-.47,1.65.35,1.65,2.48,2.59.83,2.12-.83,8.14.47,1.3-2.71,1.41-.59,1.77.83.83,2.24,1.77.59.94-.59.83-1.18.59-2.83.71-3.54,1.41-1.77.12-.47-.47-.12-1.77.24-2.24-.12-1.3-.71-1.18-1.18-1.18-1.65-1.06-2-1.06-2.95-.83-1.89.24-1.53.94-1.3,1.41-1.77,1.06h-1.77l-1.65-.71-3.66-2.36-2.95-1.06-2.48-.12-4.36.83h-1.77l-2.83-.94-7.43-1.3-8.25.59-2.95-.24-2.24-.59-4.13-3.66-2.83-1.41-2.36-4.24-4.72-4.72-.47-1.77v-1.65l.83-1.3,2.24-2.24,1.06-1.41.24-2.48-.71-1.53-.94-1.3-2.83-2.71-1.06-.47-3.42-1.06-2.12-1.18-.83-1.89-.59-2.59-.24-6.72-.83-5.19-.83-1.77-1.06-1.65-2.95-2.36-1.77-2-.35-2,.47-3.18-.12-1.3-.59-.35-1.06.35-2.95,2.59-1.06-.24-1.3-1.18-.59-2.24-1.3-1.06-1.41-.47-5.42.47-1.77-.35-1.77-1.06-.83-1.18-.47-1.3-.47-3.54-1.3-1.77-3.54-3.66-.59-1.89.24-1.53.83-1.18.12-1.65-.59-2.71-4.36-9.31-1.65-2.59-1.65-1.65-5.07-3.77-7.55-8.96,6.84-14.62,4.83-1.53,6.13-.24,1.53-.59.83-1.06.47-3.3.47-1.77,1.18-1.89,1.18-.47,1.3.24,1.3.83,2.24,2.24,1.41.71,2.12.12,2.24-1.18,1.18-1.65.94-4.13.71-2.48,2-3.07,1.06-2.36.47-2.36.24-2,.47-2.12,2.36-4.95.24-2.12-.35-2-.59-1.65-1.18-3.77,5.54,5.31,5.19,7.55,8.14,14.38,2.48,2.83,2.12,1.77,3.54.47,1.77-.12,2.83-.94h1.53l2.83,1.18,7.9,6.84,2.71,3.42,4.24,3.18,5.31,3.07,1.53.59,2.48.35,1.77.71,2.12.12.83-1.89-.47-1.53,1.18-1.3,1.89-.12,2.95.59,3.77,1.65,2.12,1.65.71,1.53v3.66l.94,2.24,3.18,3.42,2.24,1.53,1.65.59,1.65-.12,1.41-.59,3.07-1.77,1.41-.47,1.77-.12.71.71.24,1.18-.35,3.18.47,1.65,1.06.24,1.18-.47,2.12-2.24,1.18-.94,1.18-.35,2,.35,1.41.83,1.18,1.18,1.06.35,2.12-.12,1.53.35.94.83.47,1.18.47,2.83.83,1.3,1.3.71,5.9,1.65,2.83.35,5.66-.24h0Z"/>
      <path id="ROU315" class="cls-2" d="m981.12,401.61l-.83,2.59-1.06.59-.24,1.89.71.47.12,1.06-1.53,6.25-.24,1.77.35,2.59,3.07,8.96.59,3.07,1.18,2.59-.71,2.71-.24,1.41.35,1.41,1.41,2.95-.35.83-1.65,1.18-.59.94.35,5.19,1.89,5.42,2.24,4.24,1.06,1.77,1.06,17.8-.24,2.95.83,2.24-1.77.94-4.13-.12-1.65.59-2,1.53-2.12,2-1.53,2,6.96,3.66,2.83,2.24,3.07,5.66v6.01l.94,1.77,4.95,6.13h.24l-1.89,2.36-1.06,3.54-1.18.71-1.3-.24-3.54-1.77-2.24-.71-2.48.24-5.42,1.89-1.3.24-.83.59-1.77,2.83-7.55-.94-3.07-1.06-2.95-.47-8.14.35-4.36-.83-6.84-3.77-4.24-3.66-2.48-3.07-1.06-1.06-1.53-.35-2.24.47-4.36.24-7.19-3.18-3.3-3.66-1.18-2-2.24-6.25-.47-1.3v-3.77l-.94-3.89-1.06-2.48-1.3-2.12-2.59-2.59-2.12-3.66-1.3-.83-3.42-1.77-1.18-1.18-3.18-4.6-1.65-3.89-.71-2.59-13.21-33.49-1.18-4.83.12-3.89.35-2,.94-1.77,1.06-1.41,1.77-1.89,3.07-3.89,2.71-2.36,2.24-1.41,3.54-.71,4.36-.24,2-.59,2.12-1.89,1.18-1.65,2.59-2.24,7.19-.47,4.24,5.9,1.53,3.07,1.18,5.19,1.53,4.48,1.06,2,1.3.94,1.53-.71.71-1.89v-2.71l.71-4.83v-1.65l-1.06-3.3-2.48-4.83-.24-1.41.47-1.18,1.65-1.06,21.34,2.71,2,.71.94,1.06.35,2.71.83,1.06h1.3l1.06-.71,2-3.66.94-1.53,1.18-.94,2-.94h1.77l9.31,3.07,4.6,2.48,3.18.83,1.89.12,4.13-1.06.47-.24h0Z"/>
      <path id="ROU316" class="cls-1" d="m983.01,266.73l-.12,1.53,2,5.07,4.95,8.61v3.42l6.96,14.03,1.3,4.95.35,2.59v2.48l-.83,2-1.18,2.24-.71,2.59,1.06,2.95-1.06.83-.47,1.41-.24,6.72.24,1.41,1.53,3.3,1.53.47.12,1.41v5.66l-.12,1.53-.71,1.3-1.77.94.94,2.48-.59.94-1.18.47-.83.94-.71,5.42-.59.83-1.53.47-.24,1.3.47,3.66.12,2.24-1.89,4.36-1.53,1.53-3.77,1.65-.47,1.3.35,3.07-.24.94-2.95,1.06.35,1.53,2.24,3.77,1.53,2.24.35,1.53-1.41,4.24-.71,4.36-2.48,7.07-.47.24-4.13,1.06-1.89-.12-3.18-.83-4.6-2.48-9.31-3.07h-1.77l-2,.94-1.18.94-.94,1.53-2,3.66-1.06.71h-1.3l-.83-1.06-.35-2.71-.94-1.06-2-.71-21.34-2.71-1.65,1.06-.47,1.18.24,1.41,2.48,4.83,1.06,3.3v1.65l-.71,4.83v2.71l-.71,1.89-1.53.71-1.3-.94-1.06-2-1.53-4.48-1.18-5.19-1.53-3.07-4.24-5.9-1.65-8.25-.94-22.76-1.3-8.37-2.83-11.2-4.72-11.08-12.97-22.76-.47-4.13.35-4.13-.12-4.48-1.41-3.18-2.36-2.59-5.66-4.83-1.77-1.89-2.48-3.42,1.41-2.95v-2l-.47-2.95-2.83-7.66-.71-5.66,14.38.94,9.31-1.65h2.36l2.36.71,2.24.83,3.07.71,2.24-.12,4.6-1.53,1.3-1.18,1.41-2.83.83-1.18h1.77l2.24.94,4.6.83,2.48-.35,1.53-.83.59-1.18.24-2.12-1.18-.83-2.24.35-1.41-.12-.83-.59-.24-.83.59-2.71-.12-2.95-.94-2.71.24-1.3.94-1.18h1.41l1.65.83,7.43,5.9,3.42,3.54,4.72,6.25,1.41.94h.83l.35-1.06v-3.42l.59-1.65,1.65-1.18,1.53.24,1.06,1.06.47,1.77-.12,2-2,6.6.12,1.3,1.3,1.06,1.65.12,2-.24,1.3.35,4.01,2.59,4.6,1.53h1.77l1.06-.83.47-1.18,1.53-.94,1.06.12,2.24,1.77,1.53.71h1.41l2-1.53,2.12-1.3,6.37-.83.94-.59h0Z"/>
      <path id="ROU317" class="cls-2" d="m908.02,389.71l1.65,8.25-7.19.47-2.59,2.24-1.18,1.65-2.12,1.89-2,.59-4.36.24-3.54.71-2.24,1.41-2.71,2.36-3.07,3.89-1.77,1.89-1.06,1.41-.94,1.77-.35,2-.12,3.89,1.18,4.83,13.21,33.49.71,2.59,1.65,3.89,3.18,4.6,1.18,1.18,3.42,1.77,1.3.83,2.12,3.66,2.59,2.59,1.3,2.12,1.06,2.48.94,3.89v3.77l.47,1.3,2.24,6.25,1.18,2,3.3,3.66-7.31,2.71-2.48,1.65-2.24,2-3.18,4.13-3.07,4.83-1.18,3.66-5.66.24-2.83-.35-5.9-1.65-1.3-.71-.83-1.3-.47-2.83-.47-1.18-.94-.83-1.53-.35-2.12.12-1.06-.35-1.18-1.18-1.41-.83-2-.35-1.18.35-1.18.94-2.12,2.24-1.18.47-1.06-.24-.47-1.65.35-3.18-.24-1.18-.71-.71-1.77.12-1.41.47-3.07,1.77-1.41.59-1.65.12-1.65-.59-2.24-1.53-3.18-3.42-.94-2.24v-3.66l-.71-1.53-2.12-1.65-3.77-1.65-2.95-.59-1.89.12-1.18,1.3.47,1.53-.83,1.89-2.12-.12-1.77-.71-2.48-.35-1.53-.59-5.31-3.07-4.24-3.18-2.71-3.42-7.9-6.84-2.83-1.18h-1.53l-2.83.94-1.77.12-3.54-.47-2.12-1.77-2.48-2.83-8.14-14.38-5.19-7.55-5.54-5.31,1.06-8.73,1.77-9.08.24-2.59,2-5.9,7.9-12.73,14.38,2.12,3.77-1.77.35-5.19.35-1.65.83-1.53,1.41-1.3,2-.59,12.03-.83,3.77.71,5.42.24,3.07.83,2,.24,2.48-.59h2.12l1.89.24,4.83,2,1.18-.24.47-.71.94-2.59,1.06-1.18,2.12-1.06,1.89-.24,1.65.35,6.48,2.36,1.65-.35,1.06-.83,1.41-2.71,1.18-1.41,3.42-2.24,1.3-1.3,2.12-2.95,1.41-1.53,3.07-1.77,9.2-1.89,3.18-.12,2.48.47,5.31,3.3,2.24.24,1.41-.35.94-.94,1.65-2.24,1.18-.12,4.36,1.3,3.77.47h0Z"/>
      <path id="ROU4844" class="cls-1" d="m752.39,638.72l2.36.71,4.95.71,1.3.47.71.83v2.95l.35,1.41.94,1.77.35,1.41.24,2.83,1.3,1.65,7.66,4.24,1.06,1.3.35,1.18-.59,1.41-.83.94-4.83,3.42-1.06,1.18-1.41,2.71-.59,2.95.35,1.41,1.06,1.53,3.89,2,2.95,2.24-2.24,1.53-.47,1.06-.12,2.24,1.18,1.3,1.77,1.06,2.36.83.71.71.12.94-1.41,2.83-1.41,1.53-7.43,3.54-2.36,1.65-2.12,2.12-3.18,4.24-3.18,5.07-1.41,4.6-6.72,7.07-3.07,2.48-1.53.94-1.65.35-1.65.12-1.89-.35-2-.47-1.89-.94-2.12-1.3-9.43-8.49-1.41-.71h-2.83l-1.06-.35-.94-.94-.94-2.12-1.77-1.18-2.36-.83-3.3-1.65-1.3-2.12-.83-3.3,1.18-7.9,1.18-3.42,2-3.89.59-1.89.47-5.07-3.07-6.72,2.83-2.24,5.9-7.07,1.18-1.65.59-1.53-.47-1.41-4.24-1.41-.47-1.06v-1.06l.47-1.06,2.71-2,.71-1.18.47-1.77.83-1.77,1.53-1.18,3.07-3.66.71-.71.94-2,7.66-.12,7.55-2.48,2.83.12,3.3,1.3,1.77-.24,5.19.35h0Zm-7.31,56.83l-5.42-4.6,3.07-8.96-9.79-2.36-1.06-11.67-8.37,3.07-6.01,10.49,6.6,2.83v5.54l-8.25.71v5.54l8.25,8.84,6.84,1.53,6.01,7.9,3.3-2.95-3.89-9.55.94-2.71,5.9,1.89,1.89-5.54h0Z"/>
      <path id="ROU4847" class="cls-1" d="m1065.43,652.75l-7.07-1.65-7.19-3.77-8.02,2.48h-9.9l-8.96-3.77-6.25-7.55h-7.19l-2.59,7.55-5.42,1.3-10.73-10.14-6.25-2.48-11.32.94,1.89-3.3.83-3.66.47-4.24,1.3-2.71,3.3-4.48.94-1.77-.12-9.31.47-.83,1.77-1.77-.12-4.01-1.3-6.37.35-1.3,1.18-1.89.12-2.12-.71-1.41-.83-5.66.35-.83,1.65-.83,1.89-1.77,1.41-2.36.47-2.36-1.06-2.24-2.12-2.36-2.48-1.89-2.36-.71-1.89-1.53.59-3.42,1.89-3.66,1.53-2.36-.94-2.12-1.53-1.53-4.36,1.77-4.24-1.77-6.84-6.01,2.24-3.66.59-2.71,1.3-2.24.24-1.3.35-5.19.71-3.18,1.77-2.83.83-.59,1.3-.24,5.42-1.89,2.48-.24,2.24.71,3.54,1.77,1.3.24,1.18-.71,1.06-3.54,1.89-2.36,2.83-.35,3.66,2,2.48,3.42-.71,3.54,3.66,9.55,2.48,4.36,2.83,1.89,2.12.59,4.36,2.48,11.08,2.83,10.26,5.42,16.62,3.77,4.6-.59,3.89-.12,1.65-.71,1.3-1.65-3.42-1.53-.94-.83-.94-2.95.24-1.3,3.54-1.89-.12-2.59.12-2.59,3.3-.83,1.89.71,3.3,2.36,2.83.47,1.53,1.18,2.12,2.24,2.48,1.41,2.83-1.06.59-1.18.35-3.42.71-1.53,2-1.06,2.83-.12,1.65-.83,6.37-5.31,5.07-1.41,2.12-.94,1.77-1.89,1.06-.47,3.07-.24.59-.47.47-1.3,1.06-1.3,1.89-1.65,2.71-1.41,2-.12,2,.35h2.59l2.24-1.18,1.65-1.89,1.18-.83,1.3.35,2.59,1.06,9.55,1.06,17.33,6.25,5.78,5.19,1.53.83,2.71,2.59,2.12,6.13.59,6.84-1.65,5.07.83,1.18.12,1.3-.94,2.59-1.06-.24-3.3.12v1.06l1.89,2.59,1.3,3.18,2.24,2.36,4.01.47-2.83,2.95-1.53,4.95-1.06,15.45-.71,3.07-1.53,4.95-.35,2.48-.24,2.83-.24,2.59-.94,1.65.83,3.77-3.18,4.95,1.65,3.18-.83,2.12-1.06.71-1.18.24-1.18.71-1.77,2.71-.94.83-2.48-1.41-1.41.35-2.48.94-24.29,3.89-15.45.94-4.48,1.53-12.38,8.61-3.66,3.66-3.18,4.48-.94-1.3.12-2.59-1.65-3.18-.83-2.71,2.83-1.18,2.95-.59,4.6-2.36,4.95-1.3,2.83-1.89,2.24-3.07.71-4.01-.71-2.24-1.53-2.24-3.77-4.01.71,2.83.24,3.3-1.89-.47-1.89,1.3-1.65.59-1.41-2.59-.59-3.3-.24-10.49,1.3-3.42,5.78-2.12,1.41-2.36-1.06-1.77-5.42-3.66-1.65-.71h-3.77l-3.89-1.3-1.3.24-.83,2.59-.71,1.53-1.41.71-2.71.24-1.3.47-4.6,4.36-1.3,2-.71,3.77.12.94,1.18.94.35,1.18-.35.94-1.3,1.3.35,1.65.83,1.3,1.06.94,2.71,1.18,6.13,6.37-1.65,1.77-1.77.59,1.65,1.18v1.41l-1.53.94-.12,1.65.94,1.77,1.65,1.41-1.18.94-1.65.47-5.54.12-1.3.59-7.43,4.6-1.3,1.18-1.18,2.48-.24,2.24.83.94,1.77-1.41-.47,2.12-2.36.83h0Z"/>
    </g>
  </g>
</svg>