<?xml version="1.0" encoding="UTF-8"?>
<svg id="Layer_2" data-name="Layer 2" xmlns="http://www.w3.org/2000/svg" viewBox="0 0 460.5 227.82">
  <defs>
    <style>
      .cls-1 {
        fill: #cf0921;
      }

      .cls-2 {
        fill: #002780;
      }

      .cls-3 {
        fill: #fcaa0f;
      }

      .cls-4, .cls-5 {
        fill: none;
        stroke: #000;
        stroke-linecap: round;
        stroke-linejoin: round;
        stroke-width: 7px;
      }

      .cls-6 {
        fill: #fcd20f;
      }

      .cls-5 {
        stroke-dasharray: 0 0 51.32 51.32;
      }
    </style>
  </defs>
  <g id="Layer_1-2" data-name="Layer 1">
    <path class="cls-6" d="m284.5,77S370.5,28,460.5,0l-161,142s-9-55-15-65Z"/>
    <polyline class="cls-3" points="299.5 142 311.5 93 338.88 107.87"/>
    <path class="cls-2" d="m460.5,0c-72.67,17-145.33,34-218,51,0,0-3.54,1.1-3.56,2.8-.01,1.36,2.27,2.4,3.56,2.95,10.02,4.28,38.27,15.34,42,20.26"/>
    <path class="cls-1" d="m311.5,93l53,38c9.3-18.4,21-38.71,35.75-59.88,20.35-29.2,41.41-52.71,60.25-71.12-23.32,14.99-46.98,29.99-71,45-26.19,16.37-52.2,32.37-78,48Z"/>
    <g>
      <path class="cls-4" d="m3.5,217c7.31,3.69,15,6.12,22.76,7.32"/>
      <path class="cls-5" d="m75.48,214.31c2.07-1.32,4.08-2.76,6.02-4.31,12.28-9.86,10.57-20.38,26-59,16.85-42.19,25.66-63.44,44-71,19.17-7.9,49.89-3.19,59,17,7.36,16.31-.83,39.53-15,47-17.03,8.98-36.61-8.04-47,2-7.44,7.19-3.56,21.88-3,24,7.51,28.41,48.41,37.09,53,38,6.29,1.25,29.22,5.45,54-7,3.45-1.73,6.63-3.64,9.56-5.65"/>
      <path class="cls-4" d="m280.61,177.76c7.12-9.2,10.64-17.56,11.89-20.76"/>
    </g>
  </g>
</svg>